<svg xmlns="http://www.w3.org/2000/svg" width="150" height="84" viewBox="0 0 150 84">
    <g fill="none" fill-rule="evenodd">
        <path fill="#FFF" d="M139.712 54.364c-2.022-3.176-4.785-15.44-15.38-15.44-8.088 0-15.891 1.34-23.944.588-7.773-.725-15.98-1.381-23.048 1.932l.41.865-.652-1.083c-4.398-.6-9.03 2.17-10.58 6.33-.317.85-.515 1.74-.712 2.627L64.2 57.41c-1.113 5.012-2.114 11.057 1.516 14.686 5.505 5.505 29.396 4.69 29.396 4.69 4.979.81 20.979-.732 30.217-1.795 2.957 2.288 5.81 4.989 9.447 5.559.54.084.959-.503.55-.945a23.2 23.2 0 0 1-3.745-5.396c3.029-.417 4.713-.718 7.456-2.761 5.7-4.243 3.398-12.808.674-17.085"/>
        <path fill="#FFDB00" d="M105.317 35.141c-1.288 13.329-12.9 6.825-24.068 10.343-8.87 2.601.046 12.482-35.724 12.482-36.27 0-41.248-23.876-35.654-37.032 2.115-4.307 5.546-7.422 9.313-10.53 4.104-3.1 8.64-5.539 13.586-6.367 50.142-8.385 72.547 18.324 72.547 30.416v.688z"/>
        <path fill="#F60" d="M35.69 19.825c-.725.07-1.237.27-1.537.598-.3.33-.45.789-.45 1.378 0 .659.103 1.196.308 1.612.205.416.67.624 1.396.624.63 0 1.104-.216 1.419-.65.316-.433.474-.997.474-1.69 0-.485-.127-.918-.38-1.3-.252-.381-.661-.572-1.23-.572zm-.236-2.027c1.104 0 2.059.346 2.863 1.04.804.693 1.207 1.542 1.207 2.547 0 .52-.071 1.058-.213 1.612a5.218 5.218 0 0 1-.663 1.534 3.84 3.84 0 0 1-1.183 1.17c-.49.31-1.064.485-1.727.52-1.451.07-2.516-.355-3.194-1.274-.678-.918-.954-2.02-.827-3.302.03-.45.133-.91.307-1.378.173-.467.418-.883.733-1.248a3.628 3.628 0 0 1 1.16-.883c.457-.226.97-.338 1.537-.338zM34.46 32.46c0-.346-.016-.676-.047-.988a8.232 8.232 0 0 1-.048-.832c0-.242.048-.45.142-.624.095-.172.268-.312.52-.416.474-.208.805-.034.994.52.19.556.284 1.23.284 2.028v2.262c0 .468-.008.919-.023 1.352-.017.434-.024.772-.024 1.013 2.366.174 4.195.305 5.488.39 1.294.088 2.13.13 2.508.13.347 0 .639.088.875.26.237.174.355.487.355.936.063.278.008.478-.165.599-.174.122-.434.199-.781.233-.348.07-.781.062-1.301-.025-.521-.086-.892-.13-1.112-.13-1.136-.07-2.327-.14-3.572-.208-1.247-.07-2.461-.121-3.644-.156-1.183-.035-2.311-.07-3.383-.104a86.26 86.26 0 0 0-2.744-.053 6.659 6.659 0 0 0-.686-.078 3.298 3.298 0 0 1-.757-.13 1.405 1.405 0 0 1-.616-.363c-.173-.174-.26-.434-.26-.78 0-.312.158-.546.474-.702.315-.157.693-.2 1.135-.13l6.388.31V32.46z"/>
        <path fill="#F60" d="M35.696 19.949c-.688.067-1.176.255-1.452.558-.277.304-.417.74-.417 1.294 0 .637.1 1.16.295 1.557.181.368.613.555 1.284.555.594 0 1.026-.196 1.32-.6.297-.41.45-.953.45-1.616 0-.457-.122-.872-.359-1.231-.23-.346-.597-.515-1.12-.517zm-.29 4.212c-.773 0-1.28-.233-1.507-.693-.213-.43-.32-.992-.32-1.667 0-.62.162-1.11.482-1.461.32-.351.863-.566 1.617-.638l.012-.001c.61 0 1.058.21 1.334.627.265.4.4.862.4 1.369 0 .717-.168 1.31-.498 1.763-.338.466-.85.7-1.52.7zm.048-6.24c-.546 0-1.045.11-1.483.326a3.533 3.533 0 0 0-1.12.853 3.894 3.894 0 0 0-.71 1.21c-.17.455-.27.908-.3 1.343-.124 1.25.146 2.332.803 3.22.648.88 1.69 1.29 3.087 1.223.636-.032 1.197-.201 1.667-.501s.855-.68 1.145-1.131c.291-.455.51-.96.646-1.498a6.373 6.373 0 0 0 .21-1.581c0-.962-.392-1.788-1.164-2.454-.778-.67-1.714-1.01-2.78-1.01zm-.014 8.43c-1.337 0-2.344-.446-2.996-1.331-.695-.938-.98-2.078-.852-3.387.031-.456.137-.932.315-1.41.177-.478.431-.911.756-1.285a3.775 3.775 0 0 1 1.198-.914 3.566 3.566 0 0 1 1.593-.351c1.128 0 2.12.36 2.943 1.07.83.716 1.25 1.604 1.25 2.642a6.63 6.63 0 0 1-.217 1.643 5.35 5.35 0 0 1-.678 1.569c-.309.482-.72.888-1.22 1.208-.507.324-1.109.504-1.788.54a7.889 7.889 0 0 1-.304.007zm6.694 12.693c.22 0 .59.043 1.123.13.504.085.927.094 1.257.028.336-.034.578-.106.734-.214.082-.058.183-.17.115-.47a.127.127 0 0 1-.003-.027c0-.406-.102-.687-.304-.835-.214-.157-.484-.236-.802-.236-.383 0-1.23-.044-2.516-.13a850.17 850.17 0 0 1-5.489-.391.125.125 0 0 1-.116-.124c0-.253.01-.596.024-1.018.016-.434.024-.887.024-1.347v-2.262c0-.78-.093-1.448-.277-1.988-.089-.26-.208-.423-.355-.487-.125-.055-.284-.041-.47.04-.228.094-.382.215-.463.363a1.172 1.172 0 0 0-.126.564c0 .24.015.516.046.82.032.319.048.656.048 1v4.315a.128.128 0 0 1-.038.09.124.124 0 0 1-.092.035l-6.388-.312c-.428-.067-.785-.027-1.074.117-.272.135-.404.328-.404.59 0 .312.075.545.223.692.157.158.346.27.563.333.225.066.471.108.73.125.271.019.507.045.7.08a78.62 78.62 0 0 1 2.726.05c1.072.035 2.2.07 3.383.104 1.18.036 2.407.087 3.647.157 1.246.069 2.437.138 3.573.208h.001zm1.893.45c-.242 0-.514-.024-.81-.074-.515-.085-.882-.128-1.092-.128-1.143-.07-2.334-.14-3.579-.208-1.237-.07-2.462-.121-3.64-.156-1.183-.035-2.312-.07-3.384-.104a87.887 87.887 0 0 0-2.74-.053 7.004 7.004 0 0 0-.694-.078 3.47 3.47 0 0 1-.784-.135 1.54 1.54 0 0 1-.668-.395c-.197-.195-.297-.487-.297-.867 0-.363.183-.636.543-.814.336-.167.743-.214 1.21-.141l6.244.304V32.46c0-.336-.016-.664-.047-.976a8.374 8.374 0 0 1-.048-.844c0-.261.053-.492.157-.683.11-.198.305-.358.582-.472.251-.11.477-.124.67-.04.212.094.377.308.49.635.192.565.29 1.26.29 2.068v2.262c0 .463-.009.919-.024 1.356-.014.359-.022.659-.023.894 2.308.17 4.115.298 5.372.382 1.281.086 2.122.13 2.5.13.371 0 .69.094.948.283.267.196.403.54.406 1.022.086.403-.07.61-.219.714-.193.136-.468.22-.84.256a2.667 2.667 0 0 1-.523.047zM59.6 12.843a4.807 4.807 0 0 1 1.542.067c.487.105.906.26 1.258.468.703.476 1.197 1.167 1.481 2.073.284.908.493 1.955.63 3.144.107 1.041.208 2.037.303 2.988.095.951.183 1.896.264 2.831a152.543 152.543 0 0 1 .406 6.087c.947-.148 1.9-.318 2.861-.512.96-.193 1.913-.29 2.861-.29.19 0 .365.067.527.201.162.133.291.29.386.467a.976.976 0 0 1 .121.536c-.014.178-.115.328-.304.446-1.11.208-2.266.41-3.469.601-1.204.195-2.199.395-2.983.603 0 .417-.014.944-.04 1.583-.028.64-.048 1.31-.06 2.007l-.042 2.028c-.014.654-.02 1.175-.02 1.562 0 .207-.007.55-.02 1.025a8.031 8.031 0 0 1-.163 1.404c-.095.461-.237.832-.426 1.116-.189.282-.46.318-.81.111-.137-.06-.232-.216-.286-.469a4.184 4.184 0 0 1-.08-.869V40.58c0-.535.013-1.063.04-1.583.026-.52.047-.995.061-1.426.013-.43.02-.765.02-1.003 0-2.766-.048-5.508-.142-8.228a81.734 81.734 0 0 0-.71-8.227 68.725 68.725 0 0 1-.325-2.832c-.08-.876-.379-1.553-.892-2.029a4.202 4.202 0 0 0-.69-.49c-.217-.119-.569-.179-1.056-.179-.216 0-.426-.074-.628-.222-.203-.149-.278-.416-.224-.803 0-.268.061-.453.183-.558a.642.642 0 0 1 .426-.156m-11.038 9.23a9.439 9.439 0 0 1 1.421-.29c.406-.044.69-.08.852-.11.162-.03.412-.06.751-.09a27.2 27.2 0 0 1 2.15-.089c.338 0 .602.015.792.044.541.061.913.157 1.115.29.204.134.318.44.345.914.054.417.082.841.082 1.272v1.27c0 .476-.035.914-.102 1.316a2.301 2.301 0 0 1-.507 1.093c-.244.267-.568.445-.974.535a8.722 8.722 0 0 1-1.298.178 55.99 55.99 0 0 1-1.583.133c-.433.031-.96.105-1.583.223-.189.03-.372.12-.548.268-.176.15-.358.565-.547 1.25-.136.474-.149.817-.04 1.024.107.21.31.357.608.446.406.15.886.29 1.44.424.554.134 1.116.268 1.684.401a44 44 0 0 1 1.583.402c.487.134.866.245 1.136.334a.785.785 0 0 1 .528.38.86.86 0 0 1 .101.601.913.913 0 0 1-.325.535c-.176.15-.426.223-.75.223a9.69 9.69 0 0 1-1.4-.245c-.393-.105-.9-.23-1.522-.379a50.306 50.306 0 0 1-3.774-1.07c-.676-.239-1.102-.469-1.278-.692-.176-.222-.21-.572-.1-1.048.053-.327.1-.669.141-1.025.04-.357.168-.862.385-1.517.216-.624.46-1.054.731-1.293.27-.237.554-.385.852-.446a12.692 12.692 0 0 1 1.948-.29 71.534 71.534 0 0 0 1.907-.155c.378-.06.683-.126.913-.2.23-.075.371-.306.426-.693.026-.147.054-.423.081-.824.027-.4.041-.66.041-.78 0-.565-.035-.907-.102-1.027-.068-.118-.318-.177-.75-.177-.434 0-.988.037-1.664.111-.677.074-1.245.127-1.705.156-.703.09-1.23.09-1.582 0-.298-.029-.494-.119-.589-.267a.823.823 0 0 1-.142-.447c0-.148.082-.282.244-.4.162-.119.365-.208.608-.269"/>
        <path fill="#F60" d="M53.392 23.065c.499 0 .764.074.858.24.05.09.118.3.118 1.088 0 .119-.013.37-.04.788a9.325 9.325 0 0 1-.083.839c-.061.432-.233.699-.511.787a6.066 6.066 0 0 1-.931.205c-.614.06-1.257.113-1.918.158-.64.044-1.288.14-1.93.287a1.729 1.729 0 0 0-.797.419c-.253.222-.487.639-.695 1.24-.212.64-.34 1.142-.38 1.489-.04.354-.087.7-.142 1.032-.101.443-.075.76.076.95.11.14.412.367 1.222.652.539.178 1.15.364 1.819.555.665.19 1.319.363 1.943.51.64.155 1.14.28 1.524.38a9.54 9.54 0 0 0 1.382.244c.28-.001.505-.067.657-.195a.792.792 0 0 0 .283-.465.736.736 0 0 0-.088-.517.666.666 0 0 0-.45-.32 26.941 26.941 0 0 0-1.138-.335 47.912 47.912 0 0 0-1.578-.4 651.39 651.39 0 0 1-1.685-.401 13.33 13.33 0 0 1-1.454-.428c-.323-.096-.553-.267-.677-.505-.124-.24-.114-.604.032-1.117.197-.713.389-1.142.587-1.31.192-.162.397-.261.608-.295a13.889 13.889 0 0 1 1.594-.224c.433-.03.964-.074 1.579-.133a8.406 8.406 0 0 0 1.284-.177c.378-.083.684-.25.909-.497.25-.304.412-.652.476-1.03.067-.396.1-.831.1-1.294v-1.271c0-.42-.027-.843-.08-1.255-.026-.441-.123-.716-.29-.827-.185-.121-.542-.212-1.062-.27a5.425 5.425 0 0 0-.777-.043c-.331 0-.682.007-1.07.02-.378.017-.738.039-1.07.069-.33.028-.58.058-.74.087-.162.03-.444.067-.86.113-.396.043-.867.14-1.401.286h-.003a1.607 1.607 0 0 0-.565.248c-.13.095-.193.194-.193.3 0 .128.04.252.123.38.073.115.239.185.496.21.352.09.869.089 1.554 0 .458-.03 1.03-.08 1.707-.155a15.989 15.989 0 0 1 1.677-.112zm1.5 12.11a9.92 9.92 0 0 1-1.431-.25 62.88 62.88 0 0 0-1.518-.378 46.523 46.523 0 0 1-1.953-.514 47.601 47.601 0 0 1-1.831-.56c-.708-.248-1.144-.487-1.337-.731-.202-.256-.243-.633-.125-1.152.053-.321.1-.663.14-1.013.04-.365.173-.883.39-1.541.227-.651.477-1.092.767-1.347.285-.251.59-.411.91-.474.65-.15 1.312-.248 1.964-.292.659-.046 1.3-.098 1.903-.157.363-.056.664-.123.887-.195.18-.058.294-.256.342-.59.026-.151.053-.425.08-.816.027-.407.04-.66.04-.772 0-.734-.06-.92-.086-.965-.006-.011-.081-.115-.642-.115-.422 0-.977.037-1.65.11-.681.076-1.256.129-1.71.158-.72.09-1.251.09-1.621-.004-.318-.03-.547-.14-.663-.321a.946.946 0 0 1-.161-.513c0-.19.099-.358.294-.501.175-.128.393-.225.65-.288a9.435 9.435 0 0 1 1.439-.293c.41-.045.686-.081.843-.11.168-.031.425-.061.762-.091.336-.03.7-.052 1.082-.068.392-.014.745-.022 1.08-.022.339 0 .612.016.81.047.562.06.945.163 1.165.308.24.159.37.489.4 1.01.055.414.083.848.083 1.279v1.27c0 .478-.035.927-.104 1.337-.071.42-.25.808-.534 1.15-.264.29-.613.484-1.043.578a8.66 8.66 0 0 1-1.317.18c-.613.06-1.147.106-1.582.135-.423.029-.951.103-1.568.22a1.01 1.01 0 0 0-.491.242c-.107.09-.282.37-.508 1.186-.157.552-.114.813-.05.935.093.18.267.305.534.385.404.148.884.289 1.434.42.554.135 1.116.269 1.683.403.569.134 1.103.269 1.588.402.485.134.869.246 1.142.336a.908.908 0 0 1 .597.437.99.99 0 0 1 .115.686c-.046.236-.17.44-.367.607-.197.167-.477.252-.831.252zm5.285-22.24c-.184 0-.372.01-.563.032H59.6a.514.514 0 0 0-.346.128c-.092.079-.14.234-.14.462-.047.353.01.583.174.703a.924.924 0 0 0 .555.199c.512 0 .876.063 1.115.193.222.122.46.292.71.505.54.499.853 1.209.936 2.112.082.884.19 1.834.324 2.826a82.24 82.24 0 0 1 .712 8.24c.094 2.716.142 5.485.142 8.232 0 .239-.007.574-.021 1.007-.014.432-.034.908-.061 1.43-.026.51-.04 1.042-.04 1.576v1.472c0 .319.027.602.078.843.03.145.093.327.213.38.39.232.557.085.659-.066.178-.268.316-.63.407-1.072.092-.451.146-.917.16-1.382.013-.474.02-.816.02-1.022 0-.388.006-.91.02-1.563l.04-2.03c.014-.688.035-1.365.062-2.008.027-.656.04-1.172.04-1.58 0-.055.038-.104.093-.12.784-.207 1.792-.41 2.995-.603 1.188-.191 2.346-.392 3.442-.597.142-.095.217-.206.227-.34a.837.837 0 0 0-.107-.465 1.437 1.437 0 0 0-.355-.431.688.688 0 0 0-.45-.172c-.933 0-1.887.097-2.835.287a67.34 67.34 0 0 1-2.866.514.121.121 0 0 1-.098-.027.12.12 0 0 1-.045-.09 155.847 155.847 0 0 0-.406-6.082 224.05 224.05 0 0 0-.264-2.831c-.095-.95-.196-1.946-.304-2.987-.134-1.176-.344-2.226-.624-3.12-.274-.873-.755-1.55-1.432-2.007a4.125 4.125 0 0 0-1.215-.45 4.496 4.496 0 0 0-.94-.096zm4.127 30.709a.92.92 0 0 1-.465-.148c-.161-.07-.28-.257-.342-.55a4.269 4.269 0 0 1-.084-.894V40.58c0-.538.013-1.073.04-1.59.027-.52.047-.993.06-1.424a35.6 35.6 0 0 0 .02-1c0-2.743-.046-5.51-.141-8.222a81.713 81.713 0 0 0-.71-8.215 70.77 70.77 0 0 1-.324-2.837c-.078-.841-.365-1.496-.853-1.95a4.137 4.137 0 0 0-.666-.472c-.198-.108-.532-.163-.995-.163-.243 0-.48-.083-.702-.247-.242-.177-.334-.487-.273-.92-.001-.286.075-.506.225-.635a.751.751 0 0 1 .5-.185 4.956 4.956 0 0 1 1.575.069c.497.106.932.269 1.295.482.73.494 1.245 1.214 1.536 2.144.284.908.498 1.973.634 3.167.108 1.042.21 2.038.305 2.989.097.982.186 1.936.263 2.834a147.904 147.904 0 0 1 .4 5.953 66.605 66.605 0 0 0 2.719-.49 14.665 14.665 0 0 1 2.885-.293.94.94 0 0 1 .607.229c.173.143.313.313.416.505.105.2.15.403.136.604-.018.22-.14.402-.362.542a.112.112 0 0 1-.043.016c-1.105.207-2.274.41-3.473.603a32.567 32.567 0 0 0-2.878.575c-.002.395-.016.884-.041 1.492a82.283 82.283 0 0 0-.06 2.004l-.041 2.03c-.014.652-.02 1.17-.02 1.558 0 .208-.008.55-.021 1.028-.014.48-.07.96-.165 1.427-.098.474-.247.864-.444 1.158a.615.615 0 0 1-.513.298zM75.345 38.93c.487-.179.858-.119 1.116.178.257.297.412.683.467 1.16a2.26 2.26 0 0 1-.244 1.182c-.19.371-.474.646-.852.824-.596.208-1.022.163-1.279-.134a1.764 1.764 0 0 1-.426-1.07c-.054-.416.041-.84.285-1.27.243-.433.554-.722.933-.87m-.08-5.976c-.326.15-.583.105-.772-.133-.19-.238-.325-.61-.406-1.116a12.94 12.94 0 0 1-.142-1.783 107.27 107.27 0 0 1-.02-2.185V24.058c0-.758.006-1.472.02-2.14a20.02 20.02 0 0 1 .061-1.405c0-.356.006-.706.02-1.048.013-.342.02-.72.02-1.137 0-.268-.014-.557-.04-.87a6.858 6.858 0 0 1-.02-.914c.013-.297.06-.564.141-.802.082-.238.204-.386.366-.447.405-.118.696.008.872.38.176.372.291.824.345 1.36.054.535.074 1.085.061 1.65-.014.564-.02.996-.02 1.293v7.715c0 .475.067 1.055.203 1.738.054.298.094.603.121.915.027.312.041.602.041.87 0 .416-.055.773-.162 1.07-.109.297-.339.52-.69.668"/>
        <path fill="#F60" d="M74.766 15.377a.857.857 0 0 0-.239.038c-.115.043-.213.167-.282.366a2.803 2.803 0 0 0-.136.77 6.78 6.78 0 0 0 .02.896c.028.326.041.614.041.881 0 .41-.007.794-.02 1.142-.013.33-.02.68-.02 1.043-.027.273-.047.743-.06 1.407a99.146 99.146 0 0 0-.021 2.138v3.678c0 .804.006 1.518.02 2.183.013.674.06 1.268.14 1.767.078.482.206.837.38 1.057.097.121.266.262.624.098h.003c.32-.137.525-.332.622-.599.102-.282.154-.629.154-1.027a10.096 10.096 0 0 0-.16-1.762c-.136-.683-.206-1.277-.206-1.76v-7.715c0-.298.006-.73.02-1.296a13.129 13.129 0 0 0-.06-1.635c-.052-.519-.165-.962-.334-1.319-.111-.237-.268-.35-.486-.35m.152 17.786a.656.656 0 0 1-.523-.266c-.203-.256-.346-.64-.43-1.173-.083-.51-.13-1.116-.145-1.8-.012-.668-.02-1.383-.02-2.189v-3.678c0-.789.008-1.49.02-2.143.015-.68.035-1.143.063-1.415-.001-.353.005-.708.019-1.04a28.2 28.2 0 0 0 .02-1.132c0-.26-.013-.54-.04-.859a6.958 6.958 0 0 1-.02-.93c.014-.307.064-.589.148-.838.093-.273.241-.449.44-.522.472-.138.825.015 1.028.442.18.383.3.855.356 1.401.054.54.075 1.1.061 1.666-.013.563-.02.994-.02 1.29v7.714c0 .468.067 1.045.2 1.715a10.31 10.31 0 0 1 .165 1.808c0 .428-.056.802-.17 1.112-.12.33-.374.58-.756.74a.931.931 0 0 1-.395.097m.47 5.882c-.349.137-.641.41-.87.814-.229.406-.319.807-.269 1.194.026.394.16.73.397 1.005.222.256.596.29 1.144.097.34-.16.606-.419.782-.763.178-.35.256-.726.23-1.118-.05-.443-.197-.81-.435-1.086-.222-.256-.542-.303-.978-.143m-.21 3.478c-.306 0-.546-.1-.72-.303a1.888 1.888 0 0 1-.456-1.143c-.058-.433.043-.888.3-1.34.257-.455.591-.766.995-.924h.003c.538-.198.96-.126 1.252.212.272.315.44.727.498 1.227.027.442-.06.862-.258 1.252a1.916 1.916 0 0 1-.91.881 2.149 2.149 0 0 1-.704.138M78.189 65.892c-.022-.27-.022-.736 0-1.4.022-.663.06-1.4.117-2.21.056-.811.118-1.64.185-2.488.067-.847.134-1.589.2-2.229.113-.982.224-1.928.336-2.837.112-.908.269-1.534.47-1.879.067-.098.256-.196.57-.295a7.088 7.088 0 0 1 1.106-.239 14.38 14.38 0 0 1 1.375-.129c.49-.024.96-.024 1.408 0 .447.024.827.08 1.14.166.313.086.514.202.603.35.112.22.084.461-.083.718a.81.81 0 0 1-.721.387l-3.79.147c-.111 0-.19.038-.234.111a.94.94 0 0 0-.1.221 7.895 7.895 0 0 0-.185 1.032c-.056.442-.106.909-.151 1.4-.044.491-.083.964-.117 1.418-.034.455-.073.829-.117 1.124l4.493.443c.357.024.58.11.67.257a.599.599 0 0 1 .067.479 1.01 1.01 0 0 1-.268.461c-.134.135-.246.202-.335.202l-4.862-.221c-.022.198-.05.479-.084.848a41.882 41.882 0 0 0-.134 2.247c-.011.345-.006.603.017.774.067.049.218.086.453.111a35.187 35.187 0 0 1 1.726.22c.313.05.604.099.872.148.246.05.436.104.57.166.134.061.2.264.2.607 0 .493-.356.738-1.072.738-.335 0-.75-.019-1.24-.056a15.58 15.58 0 0 1-1.408-.166 7.265 7.265 0 0 1-1.157-.275c-.324-.112-.498-.228-.52-.351M96.093 53.586c.402-.123.637-.056.704.202.067.258.044.56-.067.902-.246.542-.52 1.18-.822 1.917-.3.737-.615 1.51-.939 2.321a523.3 523.3 0 0 0-.972 2.45c-.324.823-.632 1.591-.922 2.303-.067.173-.15.37-.25.59-.102.22-.208.442-.32.663a3.621 3.621 0 0 1-.369.59c-.134.171-.279.282-.436.331a.94.94 0 0 1-.687-.037 1.802 1.802 0 0 1-.603-.479 5.214 5.214 0 0 1-.554-.792 10.896 10.896 0 0 1-.503-.977 14.28 14.28 0 0 1-.569-1.4 59.625 59.625 0 0 1-.604-1.786 73.294 73.294 0 0 1-.57-1.86c-.179-.615-.335-1.143-.469-1.585a5.26 5.26 0 0 0-.202-.535 3.337 3.337 0 0 1-.2-.644 2.614 2.614 0 0 1-.05-.664.924.924 0 0 1 .25-.589c.09-.172.196-.234.32-.185.122.05.245.148.368.295.122.148.23.32.318.516l.201.442c.202.566.403 1.156.604 1.77.201.613.396 1.215.587 1.804.19.59.374 1.142.553 1.66.18.514.346.956.503 1.325.18.392.346.736.503 1.031.156.295.29.467.402.516.045 0 .173-.178.386-.534.212-.356.441-.853.687-1.493a82.998 82.998 0 0 1 1.274-3.279c.447-1.08.927-2.259 1.442-3.537.156-.393.33-.693.52-.902.19-.208.352-.326.486-.35M98.205 65.892c-.022-.27-.022-.736 0-1.4.022-.663.062-1.4.117-2.21.056-.811.118-1.64.185-2.488.067-.847.134-1.589.201-2.229.112-.982.223-1.928.335-2.837.112-.908.269-1.534.47-1.879.067-.098.256-.196.57-.295a7.088 7.088 0 0 1 1.106-.239 14.38 14.38 0 0 1 1.375-.129c.491-.024.961-.024 1.408 0 .447.024.827.08 1.14.166.313.086.514.202.603.35.112.22.084.461-.083.718a.81.81 0 0 1-.721.387l-3.789.147c-.112 0-.19.038-.234.111a.905.905 0 0 0-.101.221 7.895 7.895 0 0 0-.185 1.032c-.055.442-.106.909-.15 1.4-.045.491-.084.964-.118 1.418-.033.455-.073.829-.117 1.124l4.493.443c.357.024.581.11.671.257a.598.598 0 0 1 .066.479 1.01 1.01 0 0 1-.268.461c-.134.135-.246.202-.335.202l-4.862-.221c-.022.198-.05.479-.084.848a41.882 41.882 0 0 0-.134 2.247c-.011.345-.005.603.017.774.067.049.218.086.453.111a34.555 34.555 0 0 1 2.598.368c.246.05.436.104.57.166.134.061.201.264.201.607 0 .493-.357.738-1.073.738-.335 0-.749-.019-1.24-.056a15.58 15.58 0 0 1-1.408-.166 7.265 7.265 0 0 1-1.157-.275c-.324-.112-.498-.228-.52-.351M111.55 55.28a35.339 35.339 0 0 1 1.525 3.5 50.401 50.401 0 0 0 1.894 4.313l1.744-8.917c.111-.417.223-.853.335-1.308.111-.454.268-.902.47-1.345.088-.172.206-.27.351-.295a.825.825 0 0 1 .42.037c.156.049.234.172.234.369-.045.49-.095.97-.15 1.436-.057.467-.14.909-.252 1.327l-1.543 8.253c-.089.27-.184.608-.285 1.014-.1.405-.24.767-.419 1.087-.29.467-.626.699-1.005.699-.18 0-.314-.05-.403-.148a.972.972 0 0 1-.2-.331 7.246 7.246 0 0 0-.186-.59 1.504 1.504 0 0 0-.285-.515 69.723 69.723 0 0 1-1.877-4.44c-.536-1.412-1.096-2.646-1.677-3.703a62.61 62.61 0 0 0-.234 1.713c-.112.872-.23 1.824-.352 2.856a926.14 926.14 0 0 0-.352 2.984 90.253 90.253 0 0 1-.269 2.138c-.045.418-.156.724-.335.92-.179.198-.358.296-.536.296-.358 0-.503-.295-.436-.885.022-.54.072-1.235.151-2.081.078-.848.167-1.726.268-2.635.101-.908.201-1.8.302-2.672.1-.871.206-1.602.318-2.191.022-.172.051-.4.084-.682.033-.282.084-.571.151-.866.067-.295.162-.565.285-.811.123-.245.285-.392.486-.442.201 0 .386.068.553.203.168.135.324.3.47.497.145.197.28.405.402.626.123.222.24.419.352.59M122.245 55.244c-.201 0-.42.019-.654.056a11.99 11.99 0 0 1-.704.09 5.96 5.96 0 0 1-.654.039 1.48 1.48 0 0 1-.503-.074c-.201-.098-.313-.227-.335-.387a.685.685 0 0 1 .1-.46c.09-.148.207-.277.353-.387.145-.11.285-.18.419-.203.402-.073.939-.153 1.609-.24.67-.085 1.38-.171 2.129-.257.749-.086 1.487-.172 2.213-.258a48.972 48.972 0 0 0 1.794-.24c.156-.024.352-.061.587-.111.234-.048.469-.08.704-.091a1.91 1.91 0 0 1 .654.073.8.8 0 0 1 .469.387c.156.27.139.479-.05.626-.19.148-.542.308-1.056.479l-2.716.442c-.023.787-.045 1.708-.067 2.764l-.067 3.113a99.108 99.108 0 0 1-.101 2.819c-.045.86-.101 1.499-.167 1.916-.046.22-.124.399-.235.534-.112.136-.235.209-.37.222a.567.567 0 0 1-.385-.112c-.123-.085-.207-.24-.251-.46a10.399 10.399 0 0 1-.084-1.178 32.113 32.113 0 0 1 0-1.456c.01-.503.028-1 .05-1.493.022-.491.034-.921.034-1.29 0-.27-.006-.632-.017-1.086a58.583 58.583 0 0 1-.017-1.42c0-.49-.005-.975-.016-1.454-.012-.48-.017-.89-.017-1.234l-2.65.33z"/>
    </g>
</svg>
