<svg xmlns="http://www.w3.org/2000/svg" width="42" height="42" viewBox="0 0 42 42">
    <g fill="none" fill-rule="evenodd">
        <path fill="#FFDB00" d="M41.162 21c0 11.136-9.027 20.161-20.162 20.161S.838 32.135.838 21.001C.838 9.863 9.865.837 21 .837S41.162 9.865 41.162 21"/>
        <path fill="#F60" d="M21 30.464c-4.602 0-8.345-3.04-8.345-6.775a.496.496 0 1 1 .993 0c0 3.188 3.298 5.781 7.352 5.781 4.053 0 7.351-2.593 7.351-5.78a.497.497 0 1 1 .994 0c0 3.734-3.743 6.774-8.345 6.774M17.076 15.615c0 .992-.703 1.796-1.57 1.796-.867 0-1.57-.804-1.57-1.796 0-.991.703-1.795 1.57-1.795.867 0 1.57.804 1.57 1.795M28.064 15.615c0 .992-.704 1.796-1.57 1.796-.867 0-1.57-.804-1.57-1.796 0-.991.703-1.795 1.57-1.795.866 0 1.57.804 1.57 1.795"/>
    </g>
</svg>
