<svg xmlns="http://www.w3.org/2000/svg" width="42" height="46" viewBox="0 0 42 46">
    <g fill="none" fill-rule="evenodd">
        <path fill="#F60" d="M40.992 26.072c0 3.26-.818 6.34-2.267 9.044a19.002 19.002 0 0 1-2.37 3.459c-.4.474-.828.933-1.277 1.362-3.576 3.462-8.487 5.596-13.903 5.596-2.972 0-5.79-.644-8.318-1.793l-.16-.073a20.304 20.304 0 0 1-1.496-.775c-.354-.2-.698-.413-1.035-.64A19.564 19.564 0 0 1 7.09 39.76l-.353-.361a19.06 19.06 0 0 1-.927-1.038 19.305 19.305 0 0 1-2.879-4.675 19.138 19.138 0 0 1-1.573-7.614c0-10.754 8.872-19.47 19.818-19.47 8.805 0 16.27 5.64 18.85 13.445.104.315.2.63.29.952.441 1.615.677 3.315.677 5.073"/>
        <path fill="#655A51" d="M26.697 3.5c-.293-.497-.676-1.002-1.287-1.22a1.66 1.66 0 0 0-.717-.088c-.283.027-.561.167-.849.168-.26.003-.541-.098-.784-.168-1.449-.41-3.13-1.169-4.678-1.096-1.011.048-1.732.663-1.983 1.462-1.19.127-2.305.556-2.816 1.594-.152.31-.199.602-.183.938.034.744-.385.937-1.003 1.288-.596.339-1.002.788-1.124 1.423-.128.667.11 1.336.59 1.862.24.264.068.675.148.992.104.415.618.419.78.783.126.286-.011.718-.021 1.018-.046 1.33.709 2.515 2.073 2.678 1.128.134 2.488.16 3.595-.13.061-.015-1.675-1.712-1.719-1.737 2.053-.464 3.823-1.464 5.344-2.802.875-.771 1.675-1.603 2.521-2.398a22.67 22.67 0 0 1 1.26-1.108c.432-.35 1.546.049 1.596.59.012.134.223.152.239.013.154-1.376-.258-2.835-.982-4.061"/>
        <path fill="#655A51" d="M28.407 8.455C27.713 7.028 27.59 6.29 26.4 5.23c-2.413-2.148-6.897-2.14-9.594-.291-1.254.86-2.162 2.139-2.694 3.62-.602 1.677-.132 4.115.51 5.717.037.09.159.056.145-.04l-.016-.098c.673.414 1.399.748 1.992 1.28.66.593 1.18 1.324 1.846 1.914.574.51 1.22.99 1.915 1.32.758.358 1.525.304 2.342.337 1.507.06 2.739.15 4.012-.803 1.23-.92 1.648-.76 1.648-.76s.972-6.767-.1-8.972"/>
        <path fill="#FFE4DC" d="M27.288 15.403c-1.67 2.628-6.345 7.49-6.345 7.49s1.836 3.147 1.656 3.675c-.247.73-4.16 3.183-4.16 3.183s1.828 2.089 2.803 2.599c.895.469 2.046.57 3.035.452 1.264-.151 2.461-.898 3.534-1.54 1.162-.693 2.26-1.5 3.22-2.455.89-.886 1.66-1.888 2.221-3.015.367-.734.752-1.612.572-2.444.16-.081 1.468-1.375 1.29-1.344-.912.156-2.727.744-3.476.288-1.008-.613-3.464-7.728-3.464-7.728s-.957.03-.886.839"/>
        <path fill="#FFE4DC" d="M21.965 5.654c-1.823-.282-3.916.743-5.319 1.804-.555.419-1.172.948-1.678 1.554a4.71 4.71 0 0 0-.303.754c-.582 1.939-.239 3.976.357 5.867.553 1.754 1.351 3.84 2.44 5.323 1.264 1.72 4.124 3.48 5.064 3.308.939-.172 4.944-1.87 5.577-4.032.535-1.83.13-4.69-.202-6.556-.163-.921-.24-1.845-.562-2.732-.349-.963-.924-1.898-1.432-2.784-.879-1.53-2.221-2.24-3.942-2.506"/>
        <path fill="#FFE4DC" d="M27.225 10.413c-.487.022-.801.335-.816.813a.156.156 0 0 0 .017.075c-.078.367.044.738.12 1.128.12.614.192 1.235.294 1.85.052.316.154.768.542.802.407.036.754-.482.982-.744.767-.882.74-2.133.135-3.125-.273-.448-.721-.824-1.274-.8"/>
        <path fill="#655A51" d="M17.822 15.653c-.118-.152-.292-.224-.477-.078-.29.226-.054 1.002.352.926.366-.07.33-.582.125-.848M22.815 13.743c-.122-.15-.298-.215-.479-.064-.283.235-.025 1.002.378.916.364-.08.313-.592.101-.852"/>
        <path fill="#FFB390" d="M27.605 12.054a2.769 2.769 0 0 0-.18-.927c-.054-.135-.286-.124-.271.045.03.357.164.772.112 1.125a.168.168 0 0 0 .284.15c.228-.216.33.131.335.273.006.211-.142.398-.303.514-.18.13 0 .423.185.295.374-.26.596-.746.369-1.18-.127-.244-.327-.338-.531-.295"/>
        <path fill="#655A51" d="M23.588 11.626c-.243-.425-1.45-.124-1.693-.03-.317.124-1.478.745-1.209 1.248.21.392 1.097-.146 1.333-.274.24-.13.413-.223.685-.27.226-.04.924-.195.926-.498a.339.339 0 0 0-.042-.176M15.197 15.396c.229.199.808-.221.986-.363.216-.173.402-.24.658-.332.252-.092 1.243-.399 1.09-.816-.198-.535-1.433-.079-1.736.076-.232.119-1.259.822-1.102 1.285a.353.353 0 0 0 .104.15"/>
        <path fill="#FFB390" d="M27.91 17.673c-.333.611-.184 1.31-.377 1.967-.213.727-.683 1.39-1.098 2.012-.43.646-.82 1.292-1.52 1.661-.712.375-1.798 1.056-2.613.924-.099-.015-.159.106-.07.165.575.378 1.283-.09 1.835-.34.676-.307 1.39-.57 1.865-1.16.63-.785 1.246-1.7 1.668-2.616.37-.8.396-1.707.443-2.577.004-.07-.1-.098-.134-.036M20.877 18.558c-.502-.162-.93-.277-.992-.854-.04-.356-.002-.717-.05-1.077-.075-.548-.212-1.145-.616-1.544-.029-.028-.08 0-.069.04.126.448.326.86.405 1.322.082.464-.076 1.213.087 1.64.17.445.77.69 1.21.658.104-.009.128-.152.024-.185M21.731 17.577c-.227-.004-.498.153-.632.33-.051.067.033.164.108.14.098-.032.185-.078.278-.122.101-.048.211-.07.306-.127.1-.062.058-.22-.06-.221"/>
        <path fill="#655A51" d="M27.123 9.662c-.149-.433-.479-.842-.725-1.226-.387-.604-.832-1.274-1.379-1.751-1.908-1.66-4.395-1.881-6.622-.753-1.116.565-2.455 1.309-3.244 2.297-.654.82-.929 1.852-.976 2.884a.122.122 0 0 0 .107.133c-.133.3-.215.622-.252.946.113.228.154.472.18.719l.002-.004c.156-1.05.4-2.27 1.564-2.615.684-.203 1.365-.31 2.02-.613a11.38 11.38 0 0 0 1.298-.72c1.301-.582 2.737-1.094 4.011-.191.495.352.98.718 1.466 1.08.17.173.336.349.485.54.238.307.427.635.614.976.13.238.254.588.474.767.608.493.742-.475.79-.847.063-.501.355-1.133.187-1.622"/>
        <path fill="#F60" d="M23.597 19.213c.11-.445-.074-.656-.494-.454-.457.22-.873.511-1.34.716-.369.162-.784.232-1.127.45-.1.063-.186.221-.09.312.903.86 2.753.192 3.051-1.024"/>
        <path fill="#FFDB00" d="M40.992 26.072c0 .083 0 .169-.003.252a19.044 19.044 0 0 1-2.264 8.792 19.002 19.002 0 0 1-2.37 3.459c-.4.474-.828.933-1.277 1.362-.239.233-.484.459-.735.676-.195.172-.389.337-.589.496l-.004.004a19.954 19.954 0 0 1-12.575 4.42h-.112a21.737 21.737 0 0 1-1.118-.038h-.003a19.96 19.96 0 0 1-7.085-1.755l-.16-.073a19.186 19.186 0 0 1-1.254-.641c-.083-.041-.163-.09-.242-.134 0 0-.004 0-.004-.003-.353-.197-.694-.41-1.03-.636-.543-1.402-1.065-2.822-1.893-3.647 1.325-2.187 3.532-5.741 5.958-7.783.144-.117.284-.23.43-.337.81-.615 1.643-1.045 2.468-1.188.185-.03 2.118-.236 2.306-.251.79.563 1.796.843 2.85.914.076.018.156.035.236.038.191.022.38.012.56-.026.048 0 .1-.004.147-.006 1.242-.054 2.464-.36 3.378-.8 1.013-.487 1.863-1.236 2.57-2.098a10.599 10.599 0 0 0 .994-1.446l.003-.003c.102-.182.214-.373.328-.573.678-1.22 1.401-2.653 1.401-2.653s.854-.315 1.567-.583c2.261-.847 5.181-.88 6.844-.812.137.497.254 1.007.347 1.519.032.159.06.319.083.478.165 1 .248 2.028.248 3.076"/>
        <path fill="#FFB390" d="M9.438 23.343a5.399 5.399 0 0 0-.377-.873c-.056-.097-.207-.032-.178.075.083.316.199.622.295.934.074.242.096.551.294.723.046.04.114.024.133-.035.088-.263-.078-.575-.167-.824M8.27 24.447c-.011-.041-.027-.086-.042-.13-.132-.667-.493-1.328-.744-1.951-.237-.587-.425-1.215-.706-1.78-.026-.054-.1-.034-.117.014-.178.508.304 1.244.492 1.71.197.49.365 1.049.596 1.555.07.152.096.32.17.472.026.053.374.424.344.184a.125.125 0 0 0 .007-.074"/>
        <path fill="#FFF" d="M23.082 29.974c.049 0 .099-.004.148-.007-1.297.833-2.692 1.544-4.272 1.465-1.373-.065-2.666-.576-4.05-.612a11.673 11.673 0 0 0-.674.003c.142-.119.283-.23.428-.339h.247c1.527.02 3.002.672 4.519.59 1.123-.06 2.137-.504 3.094-1.078.19.024.379.014.56-.022"/>
        <path fill="#51463D" d="M19.473 7.71c-1.21-.365-2.096.311-3.096.843-.56.297-1.172.183-1.744.415a2.04 2.04 0 0 0-1.035.926c-.057.104.09.232.172.133.387-.466.822-.77 1.429-.854.39-.055.753-.03 1.126-.18.416-.166.752-.489 1.155-.682.64-.306 1.267-.29 1.954-.312.166-.006.2-.24.039-.29M26.988 6.939c-.337.166-.535.459-.862.635-.475.257-.734.031-1.186.106-.215.036-.329.135-.522.217-.379.161-.72.209-1.125.241-.098.008-.133.109-.075.183.435.554 1.573-.271 2.034-.266.378.004.606.078.954-.106.37-.196.697-.53.91-.883.05-.084-.048-.166-.128-.127M26.038 5.104c-.172-.371-.495-.57-.668-.963-.268-.608-.627-1.053-1.312-1.196-.214-.045-.304.268-.091.33.39.111.73.314.937.673.144.248.163.551.338.783.225.297.463.496.575.885.093.321.117.631.268.933.049.099.189.043.194-.052.026-.423-.06-1.003-.241-1.393M23.556 3.811c-.483-.608-1.967-1.237-2.683-.755-.057.04-.058.145.021.16.444.091.885.057 1.322.213.424.152.797.473 1.236.561.11.021.17-.096.104-.179M19.914 5.545c-.71-.572-1.365-.527-2.215-.363-1.067.207-1.98-.386-3.019.054-.129.055-.037.266.095.226.892-.27 1.594.17 2.461.11.355-.026.693-.159 1.045-.202.58-.07 1.005.154 1.528.355.098.038.188-.114.105-.18"/>
        <path fill="#FFF" d="M40.744 22.996c-1.978.127-3.95.242-5.907.729a17.462 17.462 0 0 0-4.662 1.895c.1-.182.213-.373.328-.573.057-.035.117-.067.175-.1a17.366 17.366 0 0 1 3.694-1.435 30.333 30.333 0 0 1 6.289-.994c.032.16.06.319.083.478M40.99 26.324c0 .146-.004.293-.01.439-1.437.367-2.828.867-4.102 1.71-1.067.707-2.05 1.523-3.233 2.044-1.057.465-2.175.749-3.289 1.036-1.268.325-2.535.659-3.69 1.283-1.106.595-2.087 1.379-3.144 2.048-2.003 1.264-4.22 1.694-6.548 1.894-1.232.106-2.47.159-3.697.313-1.07.13-3.149.235-3.75 1.28-.065.108-.224.013-.167-.096.503-.955 1.831-1.165 2.793-1.347 1.363-.254 2.755-.344 4.137-.45 1.337-.1 2.684-.221 3.987-.556 1.382-.357 2.59-1.006 3.761-1.802 1.07-.73 2.114-1.497 3.315-2.004 1.105-.468 2.277-.741 3.436-1.044 1.366-.356 2.697-.774 3.895-1.545 1.111-.713 2.121-1.566 3.315-2.15a14.71 14.71 0 0 1 2.99-1.053M39.247 34.065c-.073.156-.146.312-.223.468-1.235.436-2.477.87-3.735 1.232-1.204.351-2.395.504-3.637.647-2.573.299-4.653 2.019-7 2.977-4.194 1.717-9.2 1.504-13.209 3.637-.083-.041-.163-.089-.242-.134 0 0-.003 0-.003-.003 1.745-1.018 3.741-1.535 5.738-1.92 2.72-.519 5.417-.955 7.977-2.063 2.214-.956 4.15-2.535 6.602-2.835 1.411-.175 2.751-.366 4.114-.786a84.435 84.435 0 0 0 3.618-1.22"/>
        <path fill="#FFE4DC" d="M12.526 24.932c.073-.545.729-2.204-.398-1.835-.484.156-.748.777-.901 1.211-.156.442-.16.917-.137 1.382.009.203.082.477.044.678a1.197 1.197 0 0 1-.334.577c-.261-.335-.366-.909-.5-1.313-.147-.455-.287-.914-.443-1.366a89.273 89.273 0 0 1-.888-2.678c-.137-.433-.82-2.136-1.395-1.69-.627.483.083 2.104.21 2.61.175.688.13.768.312 1.452-.404-.987-.5-1.4-.872-2.4-.182-.49-.647-2.437-1.462-2.058-.627.29-.232 1.567.006 2.392-.245-.345-.531-.62-.844-.682-.63-.118-.614.88-.452 1.29l1.605 4.095s-.71-.84-.996-1.226c-.223-.299-.825-1.204-1.281-1.05-.926.311.71 2.506.959 2.955.519.927.97 1.875 1.48 2.818.469.866.768 1.821 1.497 2.484.026.025.055.047.083.073.4.341 1.475.095 2.405-.217.506-.168.97-.356 1.26-.48.198-.086.316-.14.316-.14s.417.06.799-.338c.338-.354.65-1.067.62-2.5-.021-1.2-.852-2.844-.693-4.044"/>
        <path fill="#FFB390" d="M6.703 24.117c-.119-.312-.237-.624-.359-.935-.085-.217-.321-.596-.344-.836-.009-.103-.159-.137-.189-.026-.123.459.39 1.314.552 1.743.266.707.464 1.512.878 2.145.06.09.182.029.167-.07-.103-.691-.456-1.37-.705-2.021M8.719 25.674a6.978 6.978 0 0 0-.386-1.312c-.064-.156-.28-.099-.253.07.067.435.196.91.349 1.322.067.182.327.111.29-.08"/>
        <path fill="#FFE4DC" d="M12.698 43.666a19.858 19.858 0 0 1-5.961-4.268l1-6.82.159-1.077 1.563-.2.328-.044 2.806-.362.006.582.099 12.19z"/>
        <path fill="#FFB390" d="M10.539 27.422c-.963.937-1.454 2.952-.985 4.221.045.12.222.104.228-.032.03-.726-.067-1.388.097-2.114.16-.705.512-1.314.793-1.972.036-.084-.06-.175-.133-.103M11.663 31.93c-.316.026-.614.115-.926.163-.317.05-.658-.018-.966.061-.153.04-.115.262.037.268.657.027 1.37.077 1.9-.387.037-.034.008-.109-.045-.105"/>
        <path fill="#FFE4DC" d="M35.133 37.655c.464.659 1.227 1.2 1.868 1.4.309.099.652.09.894-.18.258-.287-.074-1.04-.074-1.04s1.178.548 1.465.134c.362-.52-.258-1.177-.258-1.177s.93.034 1.003-.396c.058-.347-.022-.697-.603-1.226 1.028.027.84-.83.376-1.393-.553-.67-1.65-1.208-2.49-.772-.254.13-.214.44-.226.692 0 0-1.042-.021-1.1.62-.007.073.027.286.033.357-.29.049-.4.21-.56.57-.174.393-.093.618.112.99-.49.216-.844.848-.44 1.42"/>
        <path fill="#FFB390" d="M38.548 36.296c-.02-.348-.422-.51-.675-.675-.399-.26-.785-.53-1.217-.734-.185-.087-.29.207-.11.295.667.324 1.26.781 1.865 1.201.07.047.141-.015.137-.087M39.183 34.813c-.21-.215-.492-.363-.738-.535a4.908 4.908 0 0 0-.823-.452c-.144-.064-.243.163-.116.245.267.176.555.31.818.495.233.165.486.305.748.42.098.044.182-.101.111-.173M37.485 37.568c-.291-.215-.566-.45-.85-.675-.248-.198-.52-.442-.831-.53-.095-.025-.19.094-.11.17.233.228.533.395.788.599.282.226.557.46.848.676.148.11.302-.131.155-.24"/>
        <path fill="#FFE4DC" d="M33.806 37.636c-.695.155-.747.807-.227 1.175.263.191.612.306.892.497.046.033.434.297.714.507a16.18 16.18 0 0 0 1.169-1.247c-.738-.639-1.9-1.079-2.548-.932"/>
    </g>
</svg>
