<svg xmlns="http://www.w3.org/2000/svg" xmlns:xlink="http://www.w3.org/1999/xlink" width="137" height="82" viewBox="0 0 137 82">
    <defs>
        <path id="prefix__a" d="M0 0H137V82H0z"/>
        <path id="prefix__c" d="M.215.817v81.764h92.789c5.903 0 10.73-4.828 10.73-10.73V11.547c0-5.901-4.827-10.73-10.73-10.73H.215z"/>
        <path id="prefix__e" d="M.215.817v81.764h92.789c5.903 0 10.73-4.828 10.73-10.73V11.547c0-5.901-4.827-10.73-10.73-10.73"/>
        <path id="prefix__g" d="M.215.817v81.764h92.789c5.903 0 10.73-4.828 10.73-10.73V11.547c0-5.901-4.827-10.73-10.73-10.73"/>
        <path id="prefix__i" d="M.215.817v81.764h92.789c5.903 0 10.73-4.828 10.73-10.73V11.547c0-5.901-4.827-10.73-10.73-10.73H.215z"/>
        <path id="prefix__k" d="M.215.817v81.764h92.789c5.903 0 10.73-4.828 10.73-10.73V11.547c0-5.901-4.827-10.73-10.73-10.73"/>
        <path id="prefix__m" d="M.215.817v81.764h92.789c5.903 0 10.73-4.828 10.73-10.73V11.547c0-5.901-4.827-10.73-10.73-10.73"/>
        <path id="prefix__o" d="M.215.817v81.764h92.789c5.903 0 10.73-4.828 10.73-10.73V11.547c0-5.901-4.827-10.73-10.73-10.73"/>
        <path id="prefix__q" d="M.215.817v81.764h92.789c5.903 0 10.73-4.828 10.73-10.73V11.547c0-5.901-4.827-10.73-10.73-10.73"/>
        <path id="prefix__s" d="M.215.817v81.764h92.789c5.903 0 10.73-4.828 10.73-10.73V11.547c0-5.901-4.827-10.73-10.73-10.73H.215z"/>
        <path id="prefix__u" d="M.215.817v81.764h92.789c5.903 0 10.73-4.828 10.73-10.73V11.547c0-5.901-4.827-10.73-10.73-10.73"/>
        <path id="prefix__w" d="M.215.817v81.764h92.789c5.903 0 10.73-4.828 10.73-10.73V11.547c0-5.901-4.827-10.73-10.73-10.73"/>
        <path id="prefix__y" d="M.215.817v81.764h92.789c5.903 0 10.73-4.828 10.73-10.73V11.547c0-5.901-4.827-10.73-10.73-10.73"/>
        <path id="prefix__A" d="M.215.817v81.764h92.789c5.903 0 10.73-4.828 10.73-10.73V11.547c0-5.901-4.827-10.73-10.73-10.73"/>
        <path id="prefix__C" d="M.215.817v81.764h92.789c5.903 0 10.73-4.828 10.73-10.73V11.547c0-5.901-4.827-10.73-10.73-10.73"/>
        <path id="prefix__E" d="M.215.817v81.764h92.789c5.903 0 10.73-4.828 10.73-10.73V11.547c0-5.901-4.827-10.73-10.73-10.73H.215z"/>
        <path id="prefix__G" d="M.215.817v81.764h92.789c5.903 0 10.73-4.828 10.73-10.73V11.547c0-5.901-4.827-10.73-10.73-10.73"/>
        <path id="prefix__I" d="M.215.817v81.764h92.789c5.903 0 10.73-4.828 10.73-10.73V11.547c0-5.901-4.827-10.73-10.73-10.73"/>
        <path id="prefix__K" d="M.215.817v81.764h92.789c5.903 0 10.73-4.828 10.73-10.73V11.547c0-5.901-4.827-10.73-10.73-10.73"/>
        <path id="prefix__M" d="M.215.817v81.764h92.789c5.903 0 10.73-4.828 10.73-10.73V11.547c0-5.901-4.827-10.73-10.73-10.73"/>
        <path id="prefix__O" d="M.215.817v81.764h92.789c5.903 0 10.73-4.828 10.73-10.73V11.547c0-5.901-4.827-10.73-10.73-10.73"/>
        <path id="prefix__Q" d="M.215.817v81.764h92.789c5.903 0 10.73-4.828 10.73-10.73V11.547c0-5.901-4.827-10.73-10.73-10.73"/>
        <path id="prefix__S" d="M.215.817v81.764h92.789c5.903 0 10.73-4.828 10.73-10.73V11.547c0-5.901-4.827-10.73-10.73-10.73"/>
        <path id="prefix__U" d="M.215.817v81.764h92.789c5.903 0 10.73-4.828 10.73-10.73V11.547c0-5.901-4.827-10.73-10.73-10.73"/>
        <path id="prefix__W" d="M.215.817v81.764h92.789c5.903 0 10.73-4.828 10.73-10.73V11.547c0-5.901-4.827-10.73-10.73-10.73"/>
        <path id="prefix__Y" d="M.215.817v81.764h92.789c5.903 0 10.73-4.828 10.73-10.73V11.547c0-5.901-4.827-10.73-10.73-10.73"/>
        <path id="prefix__aa" d="M.215.817v81.764h92.789c5.903 0 10.73-4.828 10.73-10.73V11.547c0-5.901-4.827-10.73-10.73-10.73"/>
        <path id="prefix__ac" d="M.215.817v81.764h92.789c5.903 0 10.73-4.828 10.73-10.73V11.547c0-5.901-4.827-10.73-10.73-10.73"/>
        <path id="prefix__ae" d="M.215.817v81.764h92.789c5.903 0 10.73-4.828 10.73-10.73V11.547c0-5.901-4.827-10.73-10.73-10.73"/>
        <path id="prefix__ag" d="M.215.817v81.764h92.789c5.903 0 10.73-4.828 10.73-10.73V11.547c0-5.901-4.827-10.73-10.73-10.73"/>
        <path id="prefix__ai" d="M.215.817v81.764h92.789c5.903 0 10.73-4.828 10.73-10.73V11.547c0-5.901-4.827-10.73-10.73-10.73"/>
        <path id="prefix__ak" d="M.215.817v81.764h92.789c5.903 0 10.73-4.828 10.73-10.73V11.547c0-5.901-4.827-10.73-10.73-10.73"/>
        <path id="prefix__am" d="M.215.817v81.764h92.789c5.903 0 10.73-4.828 10.73-10.73V11.547c0-5.901-4.827-10.73-10.73-10.73"/>
        <path id="prefix__ao" d="M.215.817v81.764h92.789c5.903 0 10.73-4.828 10.73-10.73V11.547c0-5.901-4.827-10.73-10.73-10.73"/>
        <path id="prefix__aq" d="M.215.817v81.764h92.789c5.903 0 10.73-4.828 10.73-10.73V11.547c0-5.901-4.827-10.73-10.73-10.73"/>
        <path id="prefix__as" d="M.215.817v81.764h92.789c5.903 0 10.73-4.828 10.73-10.73V11.547c0-5.901-4.827-10.73-10.73-10.73"/>
        <path id="prefix__au" d="M.215.817v81.764h92.789c5.903 0 10.73-4.828 10.73-10.73V11.547c0-5.901-4.827-10.73-10.73-10.73"/>
        <path id="prefix__aw" d="M.215.817v81.764h92.789c5.903 0 10.73-4.828 10.73-10.73V11.547c0-5.901-4.827-10.73-10.73-10.73"/>
        <path id="prefix__ay" d="M.215.817v81.764h92.789c5.903 0 10.73-4.828 10.73-10.73V11.547c0-5.901-4.827-10.73-10.73-10.73"/>
        <path id="prefix__aA" d="M.215.817v81.764h92.789c5.903 0 10.73-4.828 10.73-10.73V11.547c0-5.901-4.827-10.73-10.73-10.73"/>
        <path id="prefix__aC" d="M.215.817v81.764h92.789c5.903 0 10.73-4.828 10.73-10.73V11.547c0-5.901-4.827-10.73-10.73-10.73"/>
        <path id="prefix__aE" d="M.215.817v81.764h92.789c5.903 0 10.73-4.828 10.73-10.73V11.547c0-5.901-4.827-10.73-10.73-10.73"/>
        <path id="prefix__aG" d="M.215.817v81.764h92.789c5.903 0 10.73-4.828 10.73-10.73V11.547c0-5.901-4.827-10.73-10.73-10.73"/>
        <path id="prefix__aI" d="M.215.817v81.764h92.789c5.903 0 10.73-4.828 10.73-10.73V11.547c0-5.901-4.827-10.73-10.73-10.73"/>
        <path id="prefix__aK" d="M.215.817v81.764h92.789c5.903 0 10.73-4.828 10.73-10.73V11.547c0-5.901-4.827-10.73-10.73-10.73"/>
        <path id="prefix__aM" d="M.215.817v81.764h92.789c5.903 0 10.73-4.828 10.73-10.73V11.547c0-5.901-4.827-10.73-10.73-10.73"/>
    </defs>
    <g fill="none" fill-rule="evenodd">
        <rect width="137" height="82" fill="#F60" rx="10"/>
        <mask id="prefix__b" fill="#fff">
            <use xlink:href="#prefix__a"/>
        </mask>
        <g mask="url(#prefix__b)">
            <g transform="translate(32 .183)">
                <mask id="prefix__d" fill="#fff">
                    <use xlink:href="#prefix__c"/>
                </mask>
                <path fill="#FFE4DC" d="M30.21 59.642s-2.916 20.613.496 23.397c3.412 2.783 7.126 1.643 6.716-5.698-.409-7.34-.922-17.003-.922-17.003l-6.29-.696z" mask="url(#prefix__d)"/>
                <mask id="prefix__f" fill="#fff">
                    <use xlink:href="#prefix__e"/>
                </mask>
                <path fill="#FFE4DC" d="M37.179 55.019c-.403-1.144-.893-2.262-1.346-3.387l-.703-1.748c-.131-.325-.248-.831-.533-1.088-.29-.262-.657-.27-.956-.014-.422.36-.285.927-.135 1.378.447 1.342.89 2.534.716 3.967-.776-.484-1.429-1.44-1.95-2.005-.617-.671-.359-.424-.992-1.053-.097.433-.684 1.144-.873 1.542.178.589-.155.023-.131.66.041 1.073-.236 2.093-.733 2.997.066.35.108.708.121 1.07.045 1.199.564 1.494-.048 2.47.572.486.239 1.754.675 2.059 1.043.728 2.124 1.344 2.124 1.344s2.243-.656 3.227-1.612c.109-.107.391.307 1.204-1.185.846-1.83 1.037-3.395.333-5.395" mask="url(#prefix__f)"/>
                <mask id="prefix__h" fill="#fff">
                    <use xlink:href="#prefix__g"/>
                </mask>
                <path fill="#FFB390" d="M34.54 60.114c.096-.044.142-.156.103-.256-.005-.012-.489-1.243-.403-2.357.085-1.116 1.058-2.809 1.068-2.826.054-.096.022-.218-.074-.273-.096-.056-.218-.022-.273.073-.042.072-1.027 1.79-1.12 2.996-.093 1.207.408 2.481.43 2.535.04.103.157.152.26.112l.008-.004" mask="url(#prefix__h)"/>
                <mask id="prefix__j" fill="#fff">
                    <use xlink:href="#prefix__i"/>
                </mask>
                <path fill="#51463D" d="M33.723 61.597L31.761 61.614 31.573 27.096 33.534 27.08z" mask="url(#prefix__j)"/>
                <mask id="prefix__l" fill="#fff">
                    <use xlink:href="#prefix__k"/>
                </mask>
                <path fill="#83786F" d="M77.903 110.412c.099.621.229 1.237.405 1.854.025.091.106.15.197.153 2.047.056 4.096-.002 6.138-.188.706-.065 1.413-.14 2.115-.239 1.69-.226 4.413-.497 6.19-1.042 1.963-.6 3.743-1.524 4.826-3.067.7-.997 1.112-2.246 1.092-3.826-.037-2.756-.907-5.362-1.373-8.054-.425-2.458-.135-4.916-.463-7.369-.296-2.212-.99-4.347-1.325-6.552-.325-2.139-.24-4.314-.426-6.465-.217-2.502-1.1-4.788-1.766-7.187-.023-.087-.047-.169-.076-.25-1.274-4.087-5.811-5.044-9.438-5.896-.586-.14-1.18-.276-1.78-.424-.04 0-.673 1.33-.706 1.337-.041-.009-.082-.009-.131.011-.998.44-1.28 1.473-1.336 2.49-.048.833-.017 1.68.043 2.53.07 1.014.177 2.033.235 3.027.018.336.04.673.058 1.01l.47 8.017c.037.636.077 1.27.114 1.905.043.735.09 1.466.13 2.197.138 2.575.189 5.125-.29 7.683-.047.266-.102.537-.162.803-.271 1.19-.588 2.39-.917 3.606-.866 3.228-1.777 6.535-1.982 9.833-.088 1.371-.053 2.742.158 4.103" mask="url(#prefix__l)"/>
                <mask id="prefix__n" fill="#fff">
                    <use xlink:href="#prefix__m"/>
                </mask>
                <path fill="#51463D" d="M55.127 37.248c.05 1.87.243 3.685.512 5.536 1.185 8.15 4.38 10.151 4.261 11.322-.324 3.197.585 3.83 1.516 4.61.541.455 1.85-2.159 2.654-2.07.535.057 1.068.075 1.582.02.597.723 1.347 1.302 2.252 1.433.922.132 1.847-.196 2.733-.395.351-.08.705-.147 1.06-.21-.044.263-.087.526-.126.791-.094.636-.37 1.41.386 1.68.424.15.64.06 1.066.264.18.086.343.197.516.292.4.222.775.417 1.227.506.68.134 1.372.002 2.057.034.772.037 1.512.234 2.255.43.992.262 1.996.538 3.032.42.987-.113 1.865-.587 2.816-.826 1.45-.364 4.298.764 5.092-1.12.342-.813-.328-1.279-.415-2.024-.102-.868.781-1.25.712-2.16-.154-2.072-1.785-3.445-2.848-5.062-1.456-2.213-.059-4.664-.717-7.045-.482-1.742-1.678-3.17-2.674-4.638-.578-.853-1.124-1.744-1.439-2.732-.359-1.118-.296-2.296-.429-3.45-.077-.67-.243-1.315-.476-1.93-.166-.849-.443-1.675-.885-2.463-1.445-2.575-3.915-4.643-6.568-5.726-3.09-1.26-6.813-1.358-10.038-.31-3.04.07-5.819 1.732-7.364 4.435-1.798 3.146-1.844 6.867-1.75 10.388" mask="url(#prefix__n)"/>
                <mask id="prefix__p" fill="#fff">
                    <use xlink:href="#prefix__o"/>
                </mask>
                <path fill="#FFE4DC" d="M46.603 67.915c.123 1.225.374 2.426.733 3.605.03.116.139.153.246.138 2.027-.326 4.057-.642 6.083-.971 1.57-.252 3.195-.521 4.584-1.338.789-.462 1.46-1.173 1.89-1.985 2.546.299 5.085.433 7.603.112 2.79-.355 5.608-.714 8.372-1.242.932-.177 6.26-5.092 6.26-5.092s-5.02-2.085-5.88-2.66c-1.045-.703-2.087-1.551-2.62-2.726-.466-1.031-.494-2.204-.582-3.316-.168-2.141.16-5.406.056-7.55-.007-.2-.503.908-.603 1.035-.132-.01-.268-.014-.404-.02.012-.582.025-1.162.033-1.746 0-.252-.394-.307-.396-.051l-.037 1.779c-3.366-.133-6.724-.393-10.068-.798-.124-.017-.252.094-.225.222.632 3.196.525 9.994-.283 11.188-.51.752-2.388 2.162-4.99 3.31-.267.122-.54.236-.825.35-1.335.53-2.826.975-4.4 1.23-1.657.269-3.931 1.112-4.66 2.874-.366.897.019 2.723.113 3.652" mask="url(#prefix__p)"/>
                <mask id="prefix__r" fill="#fff">
                    <use xlink:href="#prefix__q"/>
                </mask>
                <path fill="#FFE4DC" d="M58.78 45.1c.597 2.094 1.23 3.862 3.132 5.155 2.04 1.387 4.913 1.456 7.276.507 1.79-.72 3.249-2.073 4.277-3.631 1.028-1.557 1.654-3.314 2.109-5.086.865-3.373 1.107-5.953.698-9.373-.367-3.061-1.418-4.676-3.943-6.754-2.254-1.855-5.465-1.945-8.294-1.225-2.138.544-4.555 3.032-5.304 5.059-.747 2.025-.646 4.362-.75 6.71-.121 2.789.102 6.179.8 8.638" mask="url(#prefix__r)"/>
                <mask id="prefix__t" fill="#fff">
                    <use xlink:href="#prefix__s"/>
                </mask>
                <path fill="#FFE4DC" d="M75.728 36.511s1.584-.922 1.926 1.63c.34 2.55-.497 4.3-1.826 4.406-1.33.106-1.681-1.877-1.681-1.877l1.58-4.159z" mask="url(#prefix__t)"/>
                <mask id="prefix__v" fill="#fff">
                    <use xlink:href="#prefix__u"/>
                </mask>
                <path fill="#382823" d="M61.224 36.498c-.987-.2-.831 2.182-.104 2.204.176.005.343-.092.458-.226.392-.461.396-1.826-.354-1.978" mask="url(#prefix__v)"/>
                <mask id="prefix__x" fill="#fff">
                    <use xlink:href="#prefix__w"/>
                </mask>
                <path fill="#382823" d="M70.458 36.566c-.987-.2-.83 2.182-.104 2.204.175.005.343-.092.458-.226.392-.461.396-1.826-.354-1.978" mask="url(#prefix__x)"/>
                <mask id="prefix__z" fill="#fff">
                    <use xlink:href="#prefix__y"/>
                </mask>
                <path fill="#FFB390" d="M64.968 51.648c.457.003.97-.036 1.537-.139 2.727-.493 6.464-3.7 6.622-3.837.083-.072.093-.197.021-.281-.073-.084-.199-.093-.283-.021-.038.033-3.812 3.272-6.43 3.747-2.654.48-4.033-.525-4.047-.535-.089-.066-.215-.05-.28.038-.067.089-.05.214.038.28.05.038.992.735 2.822.748" mask="url(#prefix__z)"/>
                <mask id="prefix__B" fill="#fff">
                    <use xlink:href="#prefix__A"/>
                </mask>
                <path fill="#FFB390" d="M64.575 43.528c.075 0 .15-.043.183-.118.046-.1 0-.219-.1-.264-.248-.112-.93-.516-.828-.896.07-.26.183-.496.326-.796.185-.386.414-.866.636-1.59.4-1.3.26-1.957.254-1.984-.025-.107-.13-.175-.24-.15-.106.024-.174.13-.15.237.002.014.115.605-.246 1.78-.213.695-.436 1.161-.614 1.535-.146.305-.271.57-.352.863-.213.788.998 1.342 1.05 1.365.025.012.053.018.08.018" mask="url(#prefix__B)"/>
                <mask id="prefix__D" fill="#fff">
                    <use xlink:href="#prefix__C"/>
                </mask>
                <path fill="#FFB390" d="M75.934 40.778c.036 0 .073-.01.105-.03.04-.026.395-.265.51-.95.116-.678-.294-1.419-.311-1.45-.054-.096-.176-.13-.273-.076-.095.053-.13.175-.076.272.003.006.358.65.268 1.187-.087.506-.323.672-.332.68-.09.06-.117.183-.057.276.038.058.102.09.166.09" mask="url(#prefix__D)"/>
                <mask id="prefix__F" fill="#fff">
                    <use xlink:href="#prefix__E"/>
                </mask>
                <path fill="#FFE4DC" d="M74.982 37.274s1.493-1.098 2.07 1.549c.578 2.648-.093 4.551-1.41 4.773-1.313.222-1.848-1.829-1.848-1.829l1.188-4.493z" mask="url(#prefix__F)"/>
                <g>
                    <mask id="prefix__H" fill="#fff">
                        <use xlink:href="#prefix__G"/>
                    </mask>
                    <path fill="#51463D" d="M57.687 31.172l.14-.07c.91-5.494 7.385-8.085 12.355-6.789 2.807.732 5.208 2.686 6.462 5.305.553 1.155.894 2.406.99 3.682.055.704-.145 1.461-.065 2.143.079.67.866 1.134 1.107 1.771.693 1.818-.23 4.007-1.438 5.749-.09-.073-.182-.145-.271-.215-.582-.464-.932-.945-1.124-1.686-.24-.932-.157-1.987-.681-2.831-.47-.754-1.325-.961-1.93-1.553-.721-.705-.695-1.84-1.33-2.619-.627-.768-1.646-1.194-2.517-1.613-1.156-.556-2.61-.816-3.576-1.669-.464-.408-.931-.818-1.326-1.294-.2-.242-.388-.501-.52-.787-.132-.288-.263-.696-.294-1.009-1.633 1.499-3.435 2.661-5.487 3.691-.02.142-.15.167-.253.119l-.043.022c-.231.112-.431-.234-.2-.347" mask="url(#prefix__H)"/>
                </g>
                <g>
                    <mask id="prefix__J" fill="#fff">
                        <use xlink:href="#prefix__I"/>
                    </mask>
                    <path fill="#51463D" d="M76.193 26.06c2.14.506 3.615 2.311 5.66 3.042.834.298 3.222.978 3-.699-.202-1.526-2.123-2.999-3.416-3.569-1.74-.766-3.75-.597-5.306.496-.145.102-.085.291.033.352-.151.065-.174.33.029.377" mask="url(#prefix__J)"/>
                </g>
                <g>
                    <mask id="prefix__L" fill="#fff">
                        <use xlink:href="#prefix__K"/>
                    </mask>
                    <path fill="#4D3932" d="M55.724 67.966c.064.504.864.514.8.006-.343-2.73-.391-5.442-.148-8.164-.268.122-.541.236-.826.35-.211 2.602-.154 5.194.174 7.808" mask="url(#prefix__L)"/>
                </g>
                <g>
                    <mask id="prefix__N" fill="#fff">
                        <use xlink:href="#prefix__M"/>
                    </mask>
                    <path fill="#83786F" d="M43.125 98.423c-.055 2.019-.376 8.408-.393 8.46-.463 1.548-.693 7.464-.237 8.483.752 1.682 42.192 3.867 44.651 1.78 2.46-2.088-1.884-18.839-1.414-20.887.121-.523.228-1.078.33-1.661.22-1.278.394-2.673.525-4.107.196-2.162.293-4.409.292-6.457.003-1.476-.047-2.848-.143-4.016-.02-.288-.048-.56-.077-.821-.183-1.669-.613-4.683-1.083-7.706-.206-1.325-.42-2.654-.623-3.872-.502-2.999-.94-5.334-1.068-5.335-.012 0-.025-.004-.04-.012-.355-.246-1.456-3.25-1.456-3.25s-6.627 4.954-17.203 4.723c-4.83-.108-13.74-2.453-13.74-2.453s-1.152.091-2.463.509c-.32.098-.729.243-1.155.444-.124.059-.249.118-.373.185-.152.083-.309.17-.462.269-.723.466-1.332 1.086-1.618 1.899-.159.455-.275 1.09-.36 1.849-.13 1.183-.185 2.666-.217 4.238-.075 3.658-.037 7.81-.565 9.834-.024.095-.049.187-.078.271-.29.902-.348 2.217-.29 3.697.152 3.688-.723 13.252-.74 13.936" mask="url(#prefix__N)"/>
                </g>
                <g>
                    <mask id="prefix__P" fill="#fff">
                        <use xlink:href="#prefix__O"/>
                    </mask>
                    <path fill="#83786F" d="M27.415 90.964c.087.208.177.413.268.614.586 1.348 1.156 2.604 1.53 3.998.128.485.232.986.308 1.514.282 2.018.741 4.205 2.457 5.681 1.245 1.069 3.083 1.339 4.624 1.178 2.76-.283 5.575-1.126 7.791-2.849.197-.155.402-.305.611-.456.776-.558 1.636-1.107 2.472-1.677 1.56-1.064 3.044-2.217 3.81-3.683.094-.179.175-.367.248-.558.56-1.495-1.25-3.817-.72-5.301.543-1.503.054-3.014-.395-4.469-.016-.056-.035-.113-.05-.169-.39-1.27-.634-2.56-.708-3.868-.035-.628-.03-1.256.01-1.892.122-1.794.398-3.548.292-5.353-.074-1.264-.274-2.521-.524-3.763-.1-.492-.209-.985-.32-1.474-.148-.637-.14-1.588-.062-2.58.163-2.034.616-4.238.616-4.238s-.209.042-.54.14c-.05.011-.098.027-.15.042-.32.098-.729.243-1.155.444-.124.059-.249.118-.373.185-.152.083-.31.17-.462.269-.71.446-1.368 1.061-1.693 1.883-.266.653-.53 1.307-.739 1.974-.115.355-.217.714-.292 1.081-.274 1.318-.6 2.276-1.533 3.301-.108.119-.213.238-.314.361-1.036 1.2-1.939 2.581-2.64 4.016-.31-.351-.405-.551-.346-1.419.022-.279.095-.563.13-.847.051-.423.082-.851.065-1.275-.007-.18-.026-.36-.052-.54-.114-.741-.443-1.095-.75-1.729-.253-.522-.193-1.058-.085-1.593.074-.371.173-.742.208-1.114.07-.763.016-1.523-.103-2.28-.019-.112-.099-.153-.187-.141-.016-.013-.036-.021-.059-.025-2.568-.402-5.098-1.039-7.549-1.9-1.264-.443-1.61-.488-2.26.81-.395.786-.499 1.689-.396 2.507.023.179.034.367.032.559-.008 1.1-.397 2.305-.645 3.323-.045.188-.087.375-.128.559-.282 1.317-.423 2.576-.36 3.961.064 1.447.27 2.925.366 4.393.09 1.344.092 2.68-.178 3.978-.028.124-.053.248-.086.371-.049.192-.103.384-.156.575-.686 2.407-.822 5.133.172 7.476" mask="url(#prefix__P)"/>
                </g>
                <g>
                    <mask id="prefix__R" fill="#fff">
                        <use xlink:href="#prefix__Q"/>
                    </mask>
                    <path fill="#51463D" d="M67.832 72.32c.046.158.283.208.365.05.63-1.208 1.104-2.539 2.286-3.282.37-.232.646-.542.883-.887-.223.725-.379 1.467-.427 2.248-.087 1.455.172 2.85.672 4.21.298.812.388 1.461.485 2.315.037.325.086.655.31.908.568.64 1.351.168 1.787-.359.33-.397.492-.775.957-1.042.288-.166.572-.212.872-.337.542-.224.958-.6 1.32-1.058.241-.307.46-.636.666-.974-.08.353-.173.704-.293 1.05-.287.82-.914 1.592-.908 2.481.001.166.163.232.298.175 1.391-.582 3.05-1.956 3.7-3.343.353-.755.451-1.566.918-2.28.44-.672 1.003-1.252 1.498-1.883 1.24-1.579 1.212-3.475 2.09-5.212.372-.733.852-1.396 1.386-2.018.074-.063.15-.124.23-.177.326-.218.706-.34 1.036-.556.885-.573 2.073-1.585 2.054-2.748-.02-1.266-1.158-2.189-2.169-2.736-1.498-.809-3.125-1.332-4.62-2.163-2.865-1.593-6.048-5.594-9.423-4.892-.186.038-.177.257-.06.35-.1 1.04-.114 2.124-.263 4.24-.063.917-.56 3.061-1.04 3.84-.89 1.447-1.285 2.684-1.384 4.375-.075 1.245-.413 2.158-1.18 3.123-.505.635-1.074 1.23-1.494 1.927-.849 1.412-1 3.087-.552 4.655" mask="url(#prefix__R)"/>
                </g>
                <g>
                    <mask id="prefix__T" fill="#fff">
                        <use xlink:href="#prefix__S"/>
                    </mask>
                    <path fill="#FFF" d="M55.31 79.445c.448.287.812.653 1.086 1.083l.009-.017c-.044-.43.023-.877.29-1.23.145-.195.355-.325.603-.306.203-.076.468.047.543.27.367 1.094.059 2.652-1.016 3.272-1.192.687-1.92-1.877-2.106-2.625-.082-.327.289-.64.59-.447" mask="url(#prefix__T)"/>
                </g>
                <g>
                    <mask id="prefix__V" fill="#fff">
                        <use xlink:href="#prefix__U"/>
                    </mask>
                    <path fill="#FFF" d="M50.43 67.222c.048-.354.545-.588.747-.196.049.095.093.192.137.288.181-.222.461-.394.749-.378.966.053.636 1.167.399 1.708-.198.454-.694 1.955-1.441 1.328-.306-.256-.444-.827-.528-1.198-.116-.512-.133-1.032-.063-1.552" mask="url(#prefix__V)"/>
                </g>
                <g>
                    <mask id="prefix__X" fill="#fff">
                        <use xlink:href="#prefix__W"/>
                    </mask>
                    <path fill="#FFF" d="M66.99 75.215c.302-.019.502.227.632.465.052.095.096.198.132.301.13-.186.284-.405.503-.483.145-.053.271-.035.373.017.202.037.386.168.484.346.16.291.066.61-.053.898-.134.328-.254.68-.445.978-.293.458-.835.805-1.376.526-.654-.337-1.236-2.99-.25-3.049" mask="url(#prefix__X)"/>
                </g>
                <g>
                    <mask id="prefix__Z" fill="#fff">
                        <use xlink:href="#prefix__Y"/>
                    </mask>
                    <path fill="#FFF" d="M86.232 72.474c.014-.317.33-.477.604-.34.173.085.324.197.454.325.048-.482.329-.819.792-.994.213-.08.422.096.489.283.344.962.14 2.467-.862 2.994-1.353.712-1.511-1.483-1.477-2.268" mask="url(#prefix__Z)"/>
                </g>
                <g>
                    <mask id="prefix__ab" fill="#fff">
                        <use xlink:href="#prefix__aa"/>
                    </mask>
                    <path fill="#FFF" d="M32.511 72.81c.136.383.409.756.859.731.508-.028.793-.528 1.031-.916.257-.42.516-.946.451-1.455-.059-.448-.437-.763-.896-.669-.325.067-.524.287-.652.555l-.019-.016c-.362-.245-.853-.148-1.016.281-.162.426.098 1.084.242 1.49" mask="url(#prefix__ab)"/>
                </g>
                <g>
                    <mask id="prefix__ad" fill="#fff">
                        <use xlink:href="#prefix__ac"/>
                    </mask>
                    <path fill="#443930" d="M63.732 27.19c.077 0 .15-.044.185-.119.005-.014.653-1.445 1.57-2.134.508-.381.71-.672.89-.929.168-.24.313-.447.709-.699.808-.515 2.857-.821 2.877-.825.11-.016.185-.117.169-.226-.016-.11-.121-.184-.226-.169-.088.013-2.154.322-3.034.882-.464.295-.64.545-.823.809-.17.243-.345.495-.802.838-1 .751-1.667 2.228-1.696 2.29-.045.101 0 .22.102.264.025.012.053.018.079.018" mask="url(#prefix__ad)"/>
                </g>
                <g>
                    <mask id="prefix__af" fill="#fff">
                        <use xlink:href="#prefix__ae"/>
                    </mask>
                    <path fill="#443930" d="M56.985 32.714c.106 0 .195-.084.2-.19 0-.008.039-.655.562-1.361.515-.698 1.208-1.24 2.746-2.151 1.468-.87 2.374-1.852 2.412-1.895.074-.08.069-.207-.013-.282-.081-.075-.207-.069-.282.012-.01.01-.907.983-2.321 1.82-1.38.817-2.244 1.42-2.864 2.257-.6.811-.637 1.55-.638 1.581-.005.11.08.203.19.209h.008" mask="url(#prefix__af)"/>
                </g>
                <g>
                    <mask id="prefix__ah" fill="#fff">
                        <use xlink:href="#prefix__ag"/>
                    </mask>
                    <path fill="#443930" d="M59.195 28.059c.057 0 .114-.024.153-.071.007-.008.689-.803 1.77-1.34 1.117-.551 2.688-1.191 2.704-1.197.102-.041.15-.158.11-.261-.042-.102-.16-.151-.26-.11-.016.007-1.601.652-2.731 1.21-1.16.575-1.868 1.405-1.897 1.44-.072.084-.061.21.023.282.037.03.082.047.128.047" mask="url(#prefix__ah)"/>
                </g>
                <g>
                    <mask id="prefix__aj" fill="#fff">
                        <use xlink:href="#prefix__ai"/>
                    </mask>
                    <path fill="#443930" d="M80.711 28.44c.035 0 .071-.009.104-.027.095-.058.125-.18.07-.274-.039-.064-.94-1.569-1.849-2.363-.888-.776-1.228-.947-1.263-.962-.1-.047-.219-.006-.267.095-.047.1-.004.219.096.265.002.002.325.165 1.172.904.86.752 1.758 2.25 1.767 2.265.037.063.103.098.17.098" mask="url(#prefix__aj)"/>
                </g>
                <g>
                    <mask id="prefix__al" fill="#fff">
                        <use xlink:href="#prefix__ak"/>
                    </mask>
                    <path fill="#443930" d="M73.434 35.092c.02 0 .039-.002.059-.008.106-.032.166-.143.134-.25-.018-.061-.46-1.53-1.35-2.354-.791-.733-1.784-1.12-3.431-1.758l-.65-.253c-1.884-.738-2.752-3.111-2.76-3.135-.037-.104-.151-.16-.256-.121-.103.037-.158.15-.121.255.037.105.936 2.568 2.99 3.373l.653.254c1.6.622 2.568.997 3.303 1.678.81.752 1.235 2.162 1.239 2.176.026.086.104.143.19.143" mask="url(#prefix__al)"/>
                </g>
                <g>
                    <mask id="prefix__an" fill="#fff">
                        <use xlink:href="#prefix__am"/>
                    </mask>
                    <path fill="#443930" d="M69.353 29.587c.062 0 .123-.028.162-.081.067-.088.048-.214-.041-.28-.01-.007-.976-.73-1.937-1.934-.941-1.178-1.11-2.036-1.111-2.044-.02-.108-.12-.182-.232-.161-.11.02-.181.124-.161.232.007.039.18.957 1.19 2.223.996 1.246 1.972 1.975 2.013 2.005.035.027.076.04.117.04" mask="url(#prefix__an)"/>
                </g>
                <g>
                    <mask id="prefix__ap" fill="#fff">
                        <use xlink:href="#prefix__ao"/>
                    </mask>
                    <path fill="#443930" d="M86.203 50.718c.04 0 .082-.01.117-.036.09-.064.112-.189.048-.279-.002-.003-.32-.476-.723-1.91-.228-.813-.205-1.5-.176-2.373.023-.685.048-1.46-.048-2.454-.16-1.655-.656-1.958-1.406-2.417-.31-.19-.664-.406-1.07-.77-1.336-1.195-2.595-4.799-2.607-4.835-.036-.104-.153-.159-.254-.123-.105.036-.16.15-.124.254.053.152 1.306 3.74 2.72 5.002.432.388.817.624 1.127.813.692.424 1.075.658 1.216 2.114.094.968.07 1.73.046 2.403-.028.87-.053 1.622.192 2.493.425 1.52.766 2.013.781 2.034.038.054.1.084.161.084" mask="url(#prefix__ap)"/>
                </g>
                <g>
                    <mask id="prefix__ar" fill="#fff">
                        <use xlink:href="#prefix__aq"/>
                    </mask>
                    <path fill="#443930" d="M79.736 37.507c.037 0 .073-.01.106-.03.094-.057.123-.178.068-.271-.128-.256-.96-3.48-1.454-5.458-.027-.107-.135-.172-.242-.146-.108.027-.172.136-.146.244.31 1.237 1.332 5.293 1.5 5.565.037.061.102.096.168.096" mask="url(#prefix__ar)"/>
                </g>
                <g>
                    <mask id="prefix__at" fill="#fff">
                        <use xlink:href="#prefix__as"/>
                    </mask>
                    <path fill="#443930" d="M71.615 67.573c.105.001.193-.08.2-.186.002-.026.19-2.679.466-4.58.194-1.334.314-1.63.672-2.507.156-.384.35-.862.615-1.576.886-2.398.909-4.089.91-4.16 0-.11-.088-.2-.2-.2-.11-.002-.2.086-.2.197 0 .016-.026 1.697-.886 4.025-.261.707-.454 1.182-.608 1.563-.362.887-.498 1.218-.699 2.6-.279 1.916-.467 4.583-.468 4.61-.008.11.076.206.184.214h.014" mask="url(#prefix__at)"/>
                </g>
                <g>
                    <mask id="prefix__av" fill="#fff">
                        <use xlink:href="#prefix__au"/>
                    </mask>
                    <path fill="#443930" d="M74.815 58.432c.076.001.149-.042.184-.116.026-.058.66-1.456.778-3.734.117-2.268-.54-4.986-.568-5.1-.026-.108-.132-.174-.242-.148-.107.027-.173.135-.146.242.007.027.67 2.777.556 4.986-.113 2.195-.736 3.573-.742 3.587-.046.1-.002.22.098.265.027.012.055.018.082.018" mask="url(#prefix__av)"/>
                </g>
                <g>
                    <mask id="prefix__ax" fill="#fff">
                        <use xlink:href="#prefix__aw"/>
                    </mask>
                    <path fill="#443930" d="M75.897 74.57c.052 0 .104-.02.144-.06.06-.062 1.5-1.544 1.92-3.09.396-1.453 2.084-3.418 2.102-3.438.07-.083.063-.21-.02-.282-.084-.072-.21-.063-.283.02-.072.084-1.765 2.055-2.184 3.595-.392 1.445-1.806 2.901-1.821 2.915-.077.08-.076.206.003.283.038.038.088.057.139.057" mask="url(#prefix__ax)"/>
                </g>
                <g>
                    <mask id="prefix__az" fill="#fff">
                        <use xlink:href="#prefix__ay"/>
                    </mask>
                    <path fill="#443930" d="M81.962 65.317c.11 0 .201-.087.202-.197 0-.013.027-1.25 1.05-3.16.283-.528.621-1.02.947-1.496.905-1.322 1.84-2.686 1.807-4.986-.044-3.08-1.045-4.986-1.087-5.065-.053-.097-.174-.134-.27-.081-.098.05-.135.172-.083.27.01.019.997 1.906 1.04 4.882.032 2.172-.828 3.426-1.737 4.752-.332.486-.676.989-.97 1.536-1.075 2.005-1.096 3.29-1.097 3.343 0 .112.088.202.198.203" mask="url(#prefix__az)"/>
                </g>
                <g>
                    <mask id="prefix__aB" fill="#fff">
                        <use xlink:href="#prefix__aA"/>
                    </mask>
                    <path fill="#443930" d="M80.322 62.046c.093 0 .176-.064.196-.159.003-.012.275-1.273.848-2.056.602-.825 1.193-1.747 1.199-1.756.06-.093.033-.216-.06-.276-.093-.059-.217-.033-.276.06-.006.01-.591.922-1.185 1.736-.625.853-.906 2.155-.917 2.209-.023.108.047.215.154.238.014.002.027.004.04.004" mask="url(#prefix__aB)"/>
                </g>
                <g>
                    <mask id="prefix__aD" fill="#fff">
                        <use xlink:href="#prefix__aC"/>
                    </mask>
                    <path fill="#9A8E88" d="M43.047 100.022c.105 0 .194-.08.2-.188.01-.147.912-14.795 1.11-19.035.194-4.235.65-10.647.655-10.71.008-.11-.075-.207-.186-.214-.12-.007-.206.075-.214.185-.003.064-.46 6.48-.657 10.721-.195 4.236-1.097 18.881-1.106 19.03-.007.11.077.204.186.211h.012" mask="url(#prefix__aD)"/>
                </g>
                <g>
                    <mask id="prefix__aF" fill="#fff">
                        <use xlink:href="#prefix__aE"/>
                    </mask>
                    <path fill="#9A8E88" d="M40.163 95.151l.032-.001c.11-.019.184-.12.167-.23-.006-.032-.522-3.344-.513-4.035l.002-.469c.003-1.3.014-4.343.245-7.298.267-3.436-.382-6.546-.389-6.578-.023-.108-.13-.177-.236-.154-.109.023-.178.13-.155.238.007.03.644 3.086.38 6.463-.23 2.97-.24 6.023-.245 7.328 0 .206-.002.363-.003.464-.009.725.497 3.965.52 4.103.014.099.098.17.195.17" mask="url(#prefix__aF)"/>
                </g>
                <g>
                    <mask id="prefix__aH" fill="#fff">
                        <use xlink:href="#prefix__aG"/>
                    </mask>
                    <path fill="#FFE4DC" d="M32.559 50.905s-.681-.272-1.335-.327c-.654-.054-1.281.505-1.335 1.07-.055.566.19 1.247-.464 1.737-.654.491-.927 1.445-.654 2.181.272.735.199 1.113-.105 1.688-.303.573.153 1.94 1.178 2.878 1.026.94 1.162.15 1.435-.397.272-.545-.164-1.39.382-2.234.392-.61 1.804-.003 2.169-.9.365-.899 2.19-3.788-1.271-5.696" mask="url(#prefix__aH)"/>
                </g>
                <g>
                    <mask id="prefix__aJ" fill="#fff">
                        <use xlink:href="#prefix__aI"/>
                    </mask>
                    <path fill="#FFB390" d="M67.586 46.616c-.015 0-.03-.001-.046-.004-2.422-.448-3.936-.117-3.95-.114-.136.032-.268-.053-.298-.186-.03-.134.053-.266.186-.297.065-.015 1.62-.36 4.153.109.135.025.224.154.2.289-.023.12-.128.203-.245.203" mask="url(#prefix__aJ)"/>
                </g>
                <g>
                    <mask id="prefix__aL" fill="#fff">
                        <use xlink:href="#prefix__aK"/>
                    </mask>
                    <path fill="#51463D" d="M68.534 34.12c.552.18 1.328.498 2.697.57 1.37.07 1.872.314 1.872.527 0 .212-1.59.463-2.97.38-1.382-.084-2.365-.293-2.271-1.047.095-.753.672-.43.672-.43" mask="url(#prefix__aL)"/>
                </g>
                <g>
                    <mask id="prefix__aN" fill="#fff">
                        <use xlink:href="#prefix__aM"/>
                    </mask>
                    <path fill="#51463D" d="M62.084 34.014c-.54.209-1.299.57-2.66.717-1.364.146-1.853.418-1.84.63.011.213 1.612.375 2.987.215 1.374-.16 2.344-.422 2.208-1.17-.134-.746-.695-.392-.695-.392" mask="url(#prefix__aN)"/>
                </g>
            </g>
        </g>
        <g fill="#FFF" mask="url(#prefix__b)">
            <g>
                <path d="M12.11 47.823c.01-1.444-1.722-2.556-3.87-2.571-2.11-.015-3.895 1.11-3.904 2.515-.012 1.587 1.85 2.515 3.869 2.53 2.129.015 3.894-.887 3.905-2.474zm4.18 10.752L0 58.458l.017-2.34 6.83.049.028-3.662c-3.367-.39-5.13-2.397-5.113-4.777.019-2.624 2.552-4.823 6.495-4.796 3.962.029 6.445 2.265 6.426 4.889-.016 2.319-1.79 4.38-5.2 4.724l-.025 3.64 6.849.05-.016 2.34zM33.174 48.483l-2.222-.016-.023 3.276-2.462-.019.065-9.175 2.462.017-.025 3.561 2.222.015-.017 2.34zm-4.752 9.508l.011-1.486-6.739-.049-.01 1.485 6.738.05zm2.445 2.276l-11.662-.085.056-7.71 2.462.017-.013 1.73 6.738.048.013-1.729 2.462.018-.056 7.71zm-3.52-9.792c-1.039.258-3.615.645-7.188.64l-2.647-.019.055-7.65 8.478.062-.017 2.34-6.016-.044-.022 2.95 1.463.01c1.981.014 4.834-.33 5.91-.547l-.016 2.258zM35.239 55.048l-.463-5.17.05-7.121 2.61.02-.05 7.12-.537 5.163-1.61-.012zm2.279 2.276l-.023 3.275-3-.021.024-3.277 2.999.023zM72.828 7.669L65.179.02 54.441 10.758 43.703.02 36.054 7.669 46.792 18.407 36.054 29.145 43.703 36.794 54.441 26.056 65.179 36.794 72.828 29.145 62.09 18.407z" transform="translate(10 9.183)"/>
            </g>
        </g>
    </g>
</svg>
