<svg xmlns="http://www.w3.org/2000/svg" xmlns:xlink="http://www.w3.org/1999/xlink" width="137" height="82" viewBox="0 0 137 82">
    <defs>
        <path id="prefix__a" d="M0 0H137V82H0z"/>
        <path id="prefix__c" d="M.029.977v81.765h92.789c5.903 0 10.731-4.829 10.731-10.731V11.707c0-5.901-4.828-10.73-10.731-10.73H.029z"/>
        <path id="prefix__e" d="M.029.977v81.765h92.789c5.903 0 10.731-4.829 10.731-10.731V11.707c0-5.901-4.828-10.73-10.731-10.73"/>
        <path id="prefix__g" d="M.029.977v81.765h92.789c5.903 0 10.731-4.829 10.731-10.731V11.707c0-5.901-4.828-10.73-10.731-10.73"/>
        <path id="prefix__i" d="M.029.977v81.765h92.789c5.903 0 10.731-4.829 10.731-10.731V11.707c0-5.901-4.828-10.73-10.731-10.73H.029z"/>
        <path id="prefix__k" d="M.029.977v81.765h92.789c5.903 0 10.731-4.829 10.731-10.731V11.707c0-5.901-4.828-10.73-10.731-10.73"/>
        <path id="prefix__m" d="M.029.977v81.765h92.789c5.903 0 10.731-4.829 10.731-10.731V11.707c0-5.901-4.828-10.73-10.731-10.73"/>
        <path id="prefix__o" d="M.029.977v81.765h92.789c5.903 0 10.731-4.829 10.731-10.731V11.707c0-5.901-4.828-10.73-10.731-10.73"/>
        <path id="prefix__q" d="M.029.977v81.765h92.789c5.903 0 10.731-4.829 10.731-10.731V11.707c0-5.901-4.828-10.73-10.731-10.73"/>
        <path id="prefix__s" d="M.029.977v81.765h92.789c5.903 0 10.731-4.829 10.731-10.731V11.707c0-5.901-4.828-10.73-10.731-10.73H.029z"/>
        <path id="prefix__u" d="M.029.977v81.765h92.789c5.903 0 10.731-4.829 10.731-10.731V11.707c0-5.901-4.828-10.73-10.731-10.73"/>
        <path id="prefix__w" d="M.029.977v81.765h92.789c5.903 0 10.731-4.829 10.731-10.731V11.707c0-5.901-4.828-10.73-10.731-10.73"/>
        <path id="prefix__y" d="M.029.977v81.765h92.789c5.903 0 10.731-4.829 10.731-10.731V11.707c0-5.901-4.828-10.73-10.731-10.73"/>
        <path id="prefix__A" d="M.029.977v81.765h92.789c5.903 0 10.731-4.829 10.731-10.731V11.707c0-5.901-4.828-10.73-10.731-10.73"/>
        <path id="prefix__C" d="M.029.977v81.765h92.789c5.903 0 10.731-4.829 10.731-10.731V11.707c0-5.901-4.828-10.73-10.731-10.73"/>
        <path id="prefix__E" d="M.029.977v81.765h92.789c5.903 0 10.731-4.829 10.731-10.731V11.707c0-5.901-4.828-10.73-10.731-10.73"/>
        <path id="prefix__G" d="M.029.977v81.765h92.789c5.903 0 10.731-4.829 10.731-10.731V11.707c0-5.901-4.828-10.73-10.731-10.73"/>
        <path id="prefix__I" d="M.029.977v81.765h92.789c5.903 0 10.731-4.829 10.731-10.731V11.707c0-5.901-4.828-10.73-10.731-10.73"/>
        <path id="prefix__K" d="M.029.977v81.765h92.789c5.903 0 10.731-4.829 10.731-10.731V11.707c0-5.901-4.828-10.73-10.731-10.73H.029z"/>
        <path id="prefix__M" d="M.029.977v81.765h92.789c5.903 0 10.731-4.829 10.731-10.731V11.707c0-5.901-4.828-10.73-10.731-10.73"/>
        <path id="prefix__O" d="M.029.977v81.765h92.789c5.903 0 10.731-4.829 10.731-10.731V11.707c0-5.901-4.828-10.73-10.731-10.73"/>
        <path id="prefix__Q" d="M.029.977v81.765h92.789c5.903 0 10.731-4.829 10.731-10.731V11.707c0-5.901-4.828-10.73-10.731-10.73"/>
        <path id="prefix__S" d="M.029.977v81.765h92.789c5.903 0 10.731-4.829 10.731-10.731V11.707c0-5.901-4.828-10.73-10.731-10.73"/>
        <path id="prefix__U" d="M.029.977v81.765h92.789c5.903 0 10.731-4.829 10.731-10.731V11.707c0-5.901-4.828-10.73-10.731-10.73"/>
        <path id="prefix__W" d="M.029.977v81.765h92.789c5.903 0 10.731-4.829 10.731-10.731V11.707c0-5.901-4.828-10.73-10.731-10.73"/>
        <path id="prefix__Y" d="M.029.977v81.765h92.789c5.903 0 10.731-4.829 10.731-10.731V11.707c0-5.901-4.828-10.73-10.731-10.73"/>
        <path id="prefix__aa" d="M.029.977v81.765h92.789c5.903 0 10.731-4.829 10.731-10.731V11.707c0-5.901-4.828-10.73-10.731-10.73"/>
        <path id="prefix__ac" d="M.029.977v81.765h92.789c5.903 0 10.731-4.829 10.731-10.731V11.707c0-5.901-4.828-10.73-10.731-10.73"/>
        <path id="prefix__ae" d="M.029.977v81.765h92.789c5.903 0 10.731-4.829 10.731-10.731V11.707c0-5.901-4.828-10.73-10.731-10.73"/>
        <path id="prefix__ag" d="M.029.977v81.765h92.789c5.903 0 10.731-4.829 10.731-10.731V11.707c0-5.901-4.828-10.73-10.731-10.73"/>
        <path id="prefix__ai" d="M.029.977v81.765h92.789c5.903 0 10.731-4.829 10.731-10.731V11.707c0-5.901-4.828-10.73-10.731-10.73"/>
        <path id="prefix__aj" d="M.029.977v81.765h92.789c5.903 0 10.731-4.829 10.731-10.731V11.707c0-5.901-4.828-10.73-10.731-10.73"/>
        <path id="prefix__al" d="M.029.977v81.765h92.789c5.903 0 10.731-4.829 10.731-10.731V11.707c0-5.901-4.828-10.73-10.731-10.73H.029z"/>
        <path id="prefix__an" d="M.029.977v81.765h92.789c5.903 0 10.731-4.829 10.731-10.731V11.707c0-5.901-4.828-10.73-10.731-10.73"/>
        <path id="prefix__ap" d="M.029.977v81.765h92.789c5.903 0 10.731-4.829 10.731-10.731V11.707c0-5.901-4.828-10.73-10.731-10.73"/>
        <path id="prefix__ar" d="M.029.977v81.765h92.789c5.903 0 10.731-4.829 10.731-10.731V11.707c0-5.901-4.828-10.73-10.731-10.73"/>
        <path id="prefix__at" d="M.029.977v81.765h92.789c5.903 0 10.731-4.829 10.731-10.731V11.707c0-5.901-4.828-10.73-10.731-10.73"/>
        <path id="prefix__av" d="M.029.977v81.765h92.789c5.903 0 10.731-4.829 10.731-10.731V11.707c0-5.901-4.828-10.73-10.731-10.73"/>
        <path id="prefix__ax" d="M.029.977v81.765h92.789c5.903 0 10.731-4.829 10.731-10.731V11.707c0-5.901-4.828-10.73-10.731-10.73"/>
        <path id="prefix__az" d="M.029.977v81.765h92.789c5.903 0 10.731-4.829 10.731-10.731V11.707c0-5.901-4.828-10.73-10.731-10.73"/>
        <path id="prefix__aB" d="M.029.977v81.765h92.789c5.903 0 10.731-4.829 10.731-10.731V11.707c0-5.901-4.828-10.73-10.731-10.73"/>
        <path id="prefix__aD" d="M.029.977v81.765h92.789c5.903 0 10.731-4.829 10.731-10.731V11.707c0-5.901-4.828-10.73-10.731-10.73"/>
        <path id="prefix__aF" d="M.029.977v81.765h92.789c5.903 0 10.731-4.829 10.731-10.731V11.707c0-5.901-4.828-10.73-10.731-10.73"/>
        <path id="prefix__aH" d="M.029.977v81.765h92.789c5.903 0 10.731-4.829 10.731-10.731V11.707c0-5.901-4.828-10.73-10.731-10.73"/>
        <path id="prefix__aJ" d="M.029.977v81.765h92.789c5.903 0 10.731-4.829 10.731-10.731V11.707c0-5.901-4.828-10.73-10.731-10.73H.029z"/>
        <path id="prefix__aL" d="M.029.977v81.765h92.789c5.903 0 10.731-4.829 10.731-10.731V11.707c0-5.901-4.828-10.73-10.731-10.73"/>
        <path id="prefix__aN" d="M.029.977v81.765h92.789c5.903 0 10.731-4.829 10.731-10.731V11.707c0-5.901-4.828-10.73-10.731-10.73"/>
        <path id="prefix__aP" d="M.029.977v81.765h92.789c5.903 0 10.731-4.829 10.731-10.731V11.707c0-5.901-4.828-10.73-10.731-10.73"/>
        <path id="prefix__aR" d="M.029.977v81.765h92.789c5.903 0 10.731-4.829 10.731-10.731V11.707c0-5.901-4.828-10.73-10.731-10.73"/>
        <path id="prefix__aT" d="M0 0.599L15.543 0.599 15.543 18.658 0 18.658z"/>
    </defs>
    <g fill="none" fill-rule="evenodd">
        <rect width="137" height="82" fill="#F60" rx="10"/>
        <mask id="prefix__b" fill="#fff">
            <use xlink:href="#prefix__a"/>
        </mask>
        <g mask="url(#prefix__b)">
            <g>
                <g transform="translate(9) translate(22 .023)">
                    <mask id="prefix__d" fill="#fff">
                        <use xlink:href="#prefix__c"/>
                    </mask>
                    <path fill="#FFE4DC" d="M31.44 59.846s-2.856 20.187.485 22.914c3.342 2.726 6.98 1.61 6.578-5.58-.4-7.19-.903-16.652-.903-16.652l-6.16-.682z" mask="url(#prefix__d)"/>
                    <mask id="prefix__f" fill="#fff">
                        <use xlink:href="#prefix__e"/>
                    </mask>
                    <path fill="#FFE4DC" d="M38.265 55.318c-.395-1.121-.874-2.216-1.317-3.317l-.69-1.713c-.127-.318-.242-.814-.52-1.065-.285-.257-.645-.264-.938-.013-.413.353-.278.908-.132 1.349.439 1.315.872 2.482.7 3.885-.758-.474-1.398-1.41-1.91-1.964-.602-.657-.35-.414-.97-1.031-.095.424-.67 1.12-.855 1.51.176.577-.151.024-.128.648.039 1.049-.23 2.049-.718 2.933.065.343.106.694.119 1.05.044 1.173.552 1.462-.047 2.419.559.476.234 1.717.66 2.016 1.022.712 2.08 1.315 2.08 1.315s2.198-.642 3.16-1.578c.109-.105.384.3 1.18-1.161.829-1.791 1.016-3.325.326-5.283" mask="url(#prefix__f)"/>
                    <mask id="prefix__h" fill="#fff">
                        <use xlink:href="#prefix__g"/>
                    </mask>
                    <path fill="#FFB390" d="M35.68 60.308c.096-.043.14-.153.102-.25-.005-.013-.478-1.218-.395-2.309.084-1.092 1.036-2.75 1.046-2.768.055-.093.022-.214-.071-.267-.095-.055-.214-.022-.268.071-.041.071-1.007 1.752-1.098 2.935-.09 1.182.4 2.43.422 2.482.039.101.154.15.254.11l.009-.004" mask="url(#prefix__h)"/>
                    <mask id="prefix__j" fill="#fff">
                        <use xlink:href="#prefix__i"/>
                    </mask>
                    <path fill="#51463D" d="M34.881 61.761L32.96 61.777 32.775 39.66 34.695 39.644z" mask="url(#prefix__j)"/>
                    <mask id="prefix__l" fill="#fff">
                        <use xlink:href="#prefix__k"/>
                    </mask>
                    <path fill="#FFDB00" d="M78.15 109.568c.095.608.224 1.212.395 1.816.024.09.104.146.193.15 2.006.055 4.013-.002 6.012-.184.692-.063 1.383-.138 2.072-.234 1.654-.22 4.321-.486 6.061-1.02 1.922-.59 3.666-1.493 4.727-3.005.686-.976 1.09-2.199 1.07-3.747-.037-2.699-.889-5.25-1.345-7.887-.416-2.408-.132-4.815-.454-7.218-.29-2.166-.969-4.256-1.297-6.416-.319-2.095-.234-4.226-.417-6.332-.213-2.45-1.077-4.69-1.73-7.04-.023-.084-.047-.165-.074-.245-1.249-4.002-5.692-4.939-9.244-5.774-.574-.136-1.156-.269-1.74-.415-.042 0-.663 1.302-.695 1.31-.04-.009-.08-.009-.129.011-.975.431-1.253 1.442-1.308 2.44-.046.814-.016 1.643.042 2.476.07.993.173 1.991.231 2.964.018.33.04.66.057.99l.461 7.851c.035.624.075 1.243.11 1.866.043.721.09 1.436.13 2.152.133 2.522.183 5.02-.286 7.525-.046.261-.1.526-.158.786-.266 1.164-.577 2.34-.899 3.532-.848 3.162-1.74 6.4-1.94 9.63-.087 1.343-.053 2.686.154 4.018" mask="url(#prefix__l)"/>
                    <mask id="prefix__n" fill="#fff">
                        <use xlink:href="#prefix__m"/>
                    </mask>
                    <path fill="#51463D" d="M55.844 37.914c.049 1.832.237 3.608.5 5.42 1.162 7.983 4.29 9.943 4.175 11.09-.318 3.13.573 3.75 1.484 4.515.529.446 1.81-2.115 2.6-2.028.523.057 1.045.075 1.549.02.585.709 1.319 1.275 2.206 1.403.902.13 1.808-.191 2.675-.386.345-.077.692-.144 1.039-.206-.042.258-.084.516-.124.775-.092.623-.362 1.38.379 1.644.414.148.626.06 1.044.26.175.084.336.193.505.286.393.217.758.409 1.2.496.668.13 1.345.002 2.017.033.755.035 1.48.229 2.208.42.972.258 1.954.528 2.97.412.966-.11 1.825-.574 2.758-.81 1.419-.355 4.209.75 4.986-1.096.335-.795-.32-1.253-.406-1.982-.1-.85.764-1.225.698-2.116-.151-2.028-1.75-3.374-2.79-4.956-1.426-2.168-.058-4.57-.703-6.9-.472-1.707-1.643-3.105-2.618-4.543-.567-.835-1.101-1.708-1.411-2.675-.35-1.096-.29-2.25-.42-3.38-.074-.656-.237-1.288-.465-1.89-.162-.831-.434-1.64-.867-2.411-1.415-2.523-3.835-4.548-6.432-5.608-3.027-1.236-6.673-1.33-9.831-.304-2.98.067-5.698 1.696-7.212 4.343-1.762 3.08-1.806 6.725-1.714 10.174" mask="url(#prefix__n)"/>
                    <mask id="prefix__p" fill="#fff">
                        <use xlink:href="#prefix__o"/>
                    </mask>
                    <path fill="#FFE4DC" d="M47.495 67.948c.12 1.199.366 2.376.718 3.53.03.114.136.15.241.135 1.984-.318 3.973-.628 5.957-.951 1.537-.247 3.13-.51 4.49-1.31.772-.452 1.431-1.148 1.852-1.944 2.493.292 4.978.424 7.444.11 2.734-.348 5.493-.7 8.2-1.216.913-.174 6.131-4.988 6.131-4.988s-4.916-2.042-5.758-2.604c-1.025-.69-2.045-1.52-2.565-2.671-.459-1.01-.485-2.157-.57-3.247-.166-2.096.155-5.294.053-7.394-.006-.196-.492.889-.59 1.013-.13-.008-.263-.013-.396-.018.012-.572.023-1.14.032-1.711.002-.247-.385-.301-.387-.05l-.037 1.742c-3.296-.13-6.585-.385-9.86-.781-.12-.017-.248.092-.22.217.62 3.13.514 9.788-.278 10.957-.499.737-2.339 2.118-4.885 3.242-.263.12-.53.23-.809.343-1.308.519-2.769.954-4.31 1.205-1.623.263-3.85 1.088-4.564 2.814-.359.879.02 2.667.111 3.577" mask="url(#prefix__p)"/>
                    <mask id="prefix__r" fill="#fff">
                        <use xlink:href="#prefix__q"/>
                    </mask>
                    <path fill="#FFE4DC" d="M59.422 45.603c.583 2.051 1.204 3.783 3.066 5.05 1.997 1.357 4.812 1.425 7.126.495 1.753-.703 3.182-2.03 4.189-3.556 1.006-1.525 1.619-3.245 2.065-4.98.848-3.304 1.085-5.83.684-9.18-.36-2.998-1.39-4.579-3.862-6.615-2.207-1.817-5.352-1.905-8.123-1.2-2.093.533-4.461 2.97-5.194 4.955-.731 1.983-.634 4.272-.734 6.572-.12 2.73.098 6.051.783 8.46" mask="url(#prefix__r)"/>
                    <mask id="prefix__t" fill="#fff">
                        <use xlink:href="#prefix__s"/>
                    </mask>
                    <path fill="#FFE4DC" d="M76.019 37.192s1.553-.903 1.887 1.596c.334 2.498-.488 4.21-1.79 4.315-1.301.105-1.645-1.838-1.645-1.838l1.548-4.073z" mask="url(#prefix__t)"/>
                    <mask id="prefix__v" fill="#fff">
                        <use xlink:href="#prefix__u"/>
                    </mask>
                    <path fill="#382823" d="M61.815 37.179c-.968-.196-.813 2.136-.102 2.158.172.006.335-.09.448-.221.383-.452.387-1.788-.346-1.937" mask="url(#prefix__v)"/>
                    <mask id="prefix__x" fill="#fff">
                        <use xlink:href="#prefix__w"/>
                    </mask>
                    <path fill="#382823" d="M70.858 37.246c-.968-.196-.814 2.137-.103 2.159.173.005.337-.091.45-.222.383-.451.387-1.788-.347-1.937" mask="url(#prefix__x)"/>
                    <mask id="prefix__z" fill="#fff">
                        <use xlink:href="#prefix__y"/>
                    </mask>
                    <path fill="#FFB390" d="M65.481 52.017c.448.003.95-.035 1.505-.136 2.671-.484 6.331-3.624 6.486-3.758.081-.07.09-.194.02-.276-.07-.082-.195-.09-.277-.02-.037.032-3.733 3.204-6.298 3.669-2.599.47-3.95-.514-3.963-.524-.087-.064-.21-.047-.275.039-.065.086-.049.208.037.274.048.036.973.719 2.765.732" mask="url(#prefix__z)"/>
                    <mask id="prefix__B" fill="#fff">
                        <use xlink:href="#prefix__A"/>
                    </mask>
                    <path fill="#FFB390" d="M65.096 44.064c.075.001.147-.042.18-.115.044-.099 0-.215-.098-.259-.242-.109-.911-.506-.811-.878.07-.254.18-.485.32-.778.18-.379.405-.849.623-1.558.39-1.273.254-1.916.248-1.943-.025-.105-.128-.171-.234-.148-.106.024-.171.128-.148.233.002.014.113.592-.24 1.742-.21.682-.428 1.138-.603 1.505-.142.299-.265.556-.343.845-.21.771.976 1.314 1.027 1.337.025.012.053.017.079.017" mask="url(#prefix__B)"/>
                    <mask id="prefix__D" fill="#fff">
                        <use xlink:href="#prefix__C"/>
                    </mask>
                    <path fill="#F60" d="M68.79 44.841s-.639.31-2.745.466c-2.107.156-3.165-.155-3.165-.155s.722 1.78 2.94 1.821c2.219.041 2.97-2.132 2.97-2.132" mask="url(#prefix__D)"/>
                    <mask id="prefix__F" fill="#fff">
                        <use xlink:href="#prefix__E"/>
                    </mask>
                    <path fill="#FFB390" d="M76.22 41.37c.037 0 .072-.009.105-.03.04-.024.386-.26.5-.929.113-.665-.29-1.39-.306-1.42-.053-.095-.172-.128-.267-.076-.094.054-.128.173-.075.267.003.006.352.637.262 1.163-.084.496-.316.66-.325.666-.088.06-.114.18-.055.27.037.057.099.09.162.09" mask="url(#prefix__F)"/>
                    <mask id="prefix__H" fill="#fff">
                        <use xlink:href="#prefix__G"/>
                    </mask>
                    <path fill="#51463D" d="M68.09 35.56c.176.26.477.222.74.227.635.013 1.276-.084 1.91-.07.82.018 1.476.1 2.129.077.198-.007 1.042.122.757-.27-.27-.371-.838-.461-1.254-.571-.474-.125-.96-.217-1.446-.274-.806-.094-1.61-.12-2.39.134-.34.11-.722.332-.445.747" mask="url(#prefix__H)"/>
                    <g>
                        <mask id="prefix__J" fill="#fff">
                            <use xlink:href="#prefix__I"/>
                        </mask>
                        <path fill="#51463D" d="M62.83 34.769c-.768-.322-1.597-.22-2.396-.1-.575.089-1.4.19-1.734.742-.236.389.45.27.61.28.528.033 1.06-.04 1.723-.047.515-.006 1.031.1 1.545.095.214-.002.458.04.603-.217.23-.411-.078-.638-.35-.753" mask="url(#prefix__J)"/>
                    </g>
                    <g>
                        <mask id="prefix__L" fill="#fff">
                            <use xlink:href="#prefix__K"/>
                        </mask>
                        <path fill="#FFE4DC" d="M75.288 37.938s1.463-1.075 2.028 1.518c.567 2.593-.092 4.457-1.38 4.674-1.288.218-1.812-1.79-1.812-1.79l1.164-4.402z" mask="url(#prefix__L)"/>
                    </g>
                    <g>
                        <mask id="prefix__N" fill="#fff">
                            <use xlink:href="#prefix__M"/>
                        </mask>
                        <path fill="#51463D" d="M58.35 31.963c.047-.022.09-.046.138-.07.89-5.38 7.232-7.917 12.1-6.648 2.749.717 5.1 2.63 6.329 5.196.54 1.13.874 2.356.97 3.606.053.689-.143 1.43-.064 2.099.077.656.847 1.11 1.085 1.734.677 1.78-.226 3.925-1.41 5.63-.087-.071-.177-.141-.264-.21-.571-.454-.913-.925-1.101-1.651-.236-.913-.154-1.946-.67-2.773-.457-.74-1.296-.941-1.887-1.52-.706-.691-.682-1.803-1.304-2.566-.613-.752-1.611-1.168-2.465-1.58-1.132-.544-2.556-.8-3.502-1.633-.454-.401-.912-.802-1.3-1.27-.195-.235-.38-.49-.508-.77-.13-.281-.258-.681-.287-.988-1.601 1.469-3.365 2.607-5.375 3.616-.02.139-.146.163-.248.116-.013.008-.027.015-.042.022-.225.109-.422-.23-.195-.34" mask="url(#prefix__N)"/>
                    </g>
                    <g>
                        <mask id="prefix__P" fill="#fff">
                            <use xlink:href="#prefix__O"/>
                        </mask>
                        <path fill="#51463D" d="M76.475 26.956c2.096.497 3.54 2.264 5.544 2.98.816.292 3.154.958 2.937-.685-.198-1.494-2.08-2.937-3.345-3.495-1.704-.75-3.672-.585-5.197.486-.142.099-.085.285.033.344-.148.064-.171.323.028.37" mask="url(#prefix__P)"/>
                    </g>
                    <g>
                        <mask id="prefix__R" fill="#fff">
                            <use xlink:href="#prefix__Q"/>
                        </mask>
                        <path fill="#4D3932" d="M56.429 67.998c.062.494.846.504.783.006-.337-2.674-.384-5.33-.144-7.995-.264.12-.531.231-.81.343-.207 2.548-.151 5.086.17 7.646" mask="url(#prefix__R)"/>
                    </g>
                    <g>
                        <mask id="prefix__T" fill="#fff">
                            <use xlink:href="#prefix__S"/>
                        </mask>
                        <path fill="#FFDB00" d="M44.089 97.827c-.054 1.978-.368 8.234-.385 8.285-.453 1.517-.678 7.31-.231 8.309.735 1.646 41.32 3.787 43.73 1.742 2.408-2.044-1.846-18.45-1.385-20.455.118-.512.223-1.056.322-1.627.217-1.252.387-2.617.514-4.023.193-2.117.288-4.318.287-6.323.002-1.445-.046-2.79-.14-3.933-.021-.283-.047-.55-.076-.804-.18-1.634-.601-4.587-1.06-7.547-.202-1.298-.412-2.601-.61-3.792-.492-2.938-.921-5.225-1.047-5.226-.012 0-.023-.003-.04-.011-.346-.242-1.425-3.183-1.425-3.183s-6.49 4.85-16.85 4.626c-4.73-.106-13.454-2.403-13.454-2.403s-1.13.089-2.413.499c-.313.095-.714.238-1.131.434-.122.058-.244.116-.366.182-.148.08-.302.166-.452.263-.708.456-1.304 1.063-1.584 1.86-.156.445-.27 1.067-.354 1.81-.126 1.159-.18 2.612-.211 4.15-.074 3.584-.037 7.65-.553 9.632-.024.094-.05.183-.076.266-.285.883-.342 2.17-.286 3.62.149 3.613-.707 12.979-.724 13.649" mask="url(#prefix__T)"/>
                    </g>
                    <g>
                        <mask id="prefix__V" fill="#fff">
                            <use xlink:href="#prefix__U"/>
                        </mask>
                        <path fill="#FFDB00" d="M28.703 90.522c.085.203.174.404.262.6.574 1.32 1.133 2.55 1.5 3.916.125.475.226.966.301 1.484.275 1.975.725 4.117 2.407 5.563 1.217 1.047 3.017 1.312 4.527 1.155 2.704-.278 5.46-1.105 7.631-2.791.192-.153.393-.3.6-.447.758-.546 1.6-1.084 2.42-1.642 1.527-1.043 2.98-2.171 3.731-3.608.092-.175.171-.358.243-.545.548-1.465-1.226-3.738-.706-5.191.532-1.474.054-2.954-.387-4.379-.014-.055-.034-.11-.049-.165-.382-1.244-.62-2.507-.693-3.788-.034-.615-.029-1.23.01-1.852.12-1.758.39-3.476.286-5.243-.073-1.239-.268-2.47-.514-3.686-.097-.483-.204-.965-.314-1.444-.144-.624-.137-1.556-.06-2.526.16-1.993.603-4.152.603-4.152s-.203.043-.529.138c-.047.012-.094.027-.146.042-.313.096-.714.238-1.13.434-.123.057-.245.115-.367.181-.148.081-.303.166-.452.264-.696.436-1.339 1.038-1.658 1.843-.26.64-.519 1.281-.724 1.933-.112.349-.213.7-.286 1.06-.268 1.29-.588 2.228-1.5 3.233-.107.115-.21.232-.309.353-1.014 1.175-1.898 2.528-2.587 3.933-.302-.342-.395-.54-.338-1.388.022-.276.094-.553.128-.83.05-.416.08-.834.064-1.25-.006-.175-.025-.352-.05-.529-.113-.724-.435-1.072-.736-1.694-.247-.51-.189-1.035-.082-1.559.072-.363.17-.726.203-1.09.068-.749.015-1.493-.1-2.234-.019-.11-.097-.15-.183-.138-.016-.013-.036-.02-.059-.025-2.515-.394-4.992-1.017-7.394-1.86-1.237-.434-1.577-.478-2.213.794-.386.77-.488 1.652-.387 2.453.021.177.032.362.031.55-.009 1.077-.39 2.255-.632 3.252-.044.184-.085.368-.125.548-.276 1.29-.414 2.524-.354 3.88.064 1.418.264 2.864.36 4.302.088 1.318.09 2.626-.174 3.897-.028.12-.052.242-.085.362-.048.189-.1.377-.153.564-.67 2.356-.805 5.028.17 7.322" mask="url(#prefix__V)"/>
                    </g>
                    <g>
                        <mask id="prefix__X" fill="#fff">
                            <use xlink:href="#prefix__W"/>
                        </mask>
                        <path fill="#51463D" d="M68.287 72.262c.044.155.277.204.357.05.617-1.184 1.08-2.487 2.24-3.216.36-.227.631-.53.864-.867-.22.71-.37 1.436-.418 2.2-.087 1.426.168 2.791.657 4.125.292.794.381 1.43.476 2.266.036.318.083.642.303.89.556.625 1.324.164 1.751-.352.322-.389.48-.759.937-1.02.282-.163.56-.208.854-.33.531-.22.94-.588 1.292-1.037.237-.3.45-.623.653-.954-.079.346-.17.69-.288 1.027-.282.805-.895 1.561-.89 2.432.001.161.16.227.294.171 1.361-.57 2.985-1.915 3.622-3.275.347-.739.442-1.533.9-2.232.43-.659.982-1.227 1.467-1.845 1.214-1.546 1.187-3.403 2.047-5.104.363-.718.834-1.367 1.358-1.976.072-.06.145-.12.223-.174.321-.214.693-.334 1.017-.544.866-.562 2.03-1.552 2.011-2.692-.02-1.239-1.133-2.143-2.124-2.679-1.467-.792-3.06-1.304-4.526-2.118-2.805-1.56-5.923-5.479-9.228-4.792-.182.038-.173.252-.059.342-.099 1.02-.11 2.081-.257 4.154-.062.898-.55 2.998-1.019 3.76-.872 1.417-1.258 2.63-1.356 4.285-.072 1.22-.404 2.113-1.155 3.06-.494.621-1.053 1.203-1.463 1.886-.83 1.384-.979 3.023-.54 4.56" mask="url(#prefix__X)"/>
                    </g>
                    <g>
                        <mask id="prefix__Z" fill="#fff">
                            <use xlink:href="#prefix__Y"/>
                        </mask>
                        <path fill="#FFF" d="M56.023 79.24c.438.282.795.64 1.063 1.062l.008-.018c-.043-.421.023-.857.283-1.205.145-.19.35-.317.592-.3.2-.073.459.048.532.265.36 1.072.058 2.598-.995 3.205-1.167.673-1.88-1.838-2.063-2.57-.08-.321.284-.627.58-.438" mask="url(#prefix__Z)"/>
                    </g>
                    <g>
                        <mask id="prefix__ab" fill="#fff">
                            <use xlink:href="#prefix__aa"/>
                        </mask>
                        <path fill="#FFF" d="M51.243 67.27c.047-.348.533-.577.731-.193.048.093.091.188.135.282.178-.217.45-.385.734-.37.945.051.622 1.143.39 1.673-.194.444-.679 1.914-1.41 1.301-.3-.25-.436-.81-.518-1.174-.114-.502-.13-1.01-.062-1.52" mask="url(#prefix__ab)"/>
                    </g>
                    <g>
                        <mask id="prefix__ad" fill="#fff">
                            <use xlink:href="#prefix__ac"/>
                        </mask>
                        <path fill="#FFF" d="M67.462 75.097c.295-.017.49.224.618.457.05.093.094.193.13.294.127-.183.278-.397.492-.474.143-.051.266-.034.366.017.197.037.378.164.474.338.156.287.066.599-.051.88-.132.32-.25.666-.437.958-.286.448-.82.788-1.35.516-.638-.33-1.21-2.928-.242-2.986" mask="url(#prefix__ad)"/>
                    </g>
                    <g>
                        <mask id="prefix__af" fill="#fff">
                            <use xlink:href="#prefix__ae"/>
                        </mask>
                        <path fill="#FFF" d="M86.307 72.413c.014-.31.323-.467.592-.333.169.083.316.193.443.318.048-.472.323-.802.777-.973.209-.079.414.094.479.277.336.942.136 2.416-.846 2.933-1.324.697-1.48-1.453-1.445-2.222" mask="url(#prefix__af)"/>
                    </g>
                    <g>
                        <mask id="prefix__ah" fill="#fff">
                            <use xlink:href="#prefix__ag"/>
                        </mask>
                        <path fill="#FFF" d="M33.693 72.742c.134.375.4.74.842.716.498-.028.776-.518 1.01-.898.252-.412.505-.925.441-1.424-.058-.439-.428-.748-.877-.655-.318.065-.514.28-.64.543l-.017-.016c-.355-.239-.836-.145-.995.276-.16.416.095 1.061.236 1.458" mask="url(#prefix__ah)"/>
                    </g>
                    <g/>
                    <g>
                        <mask id="prefix__ak" fill="#fff">
                            <use xlink:href="#prefix__aj"/>
                        </mask>
                        <path fill="#443930" d="M64.27 28.063c.077 0 .148-.043.181-.116.007-.014.64-1.416 1.539-2.09.497-.374.696-.659.872-.91.163-.235.306-.439.694-.686.79-.503 2.797-.803 2.818-.806.107-.016.18-.116.166-.223-.017-.106-.12-.18-.224-.165-.085.013-2.109.315-2.972.864-.453.289-.623.533-.803.792-.166.238-.34.485-.787.82-.98.736-1.633 2.183-1.66 2.244-.044.099 0 .214.099.259.025.011.052.017.078.017" mask="url(#prefix__ak)"/>
                    </g>
                    <g>
                        <mask id="prefix__am" fill="#fff">
                            <use xlink:href="#prefix__al"/>
                        </mask>
                        <path fill="#443930" d="M57.662 33.472c.104.001.192-.08.197-.186 0-.006.038-.64.55-1.333.504-.683 1.183-1.214 2.69-2.106 1.437-.852 2.325-1.814 2.362-1.855.072-.08.067-.204-.013-.277-.08-.073-.203-.067-.277.013-.008.01-.888.962-2.273 1.782-1.35.8-2.197 1.39-2.804 2.211-.587.793-.624 1.517-.626 1.547-.004.108.08.2.186.204h.008z" mask="url(#prefix__am)"/>
                    </g>
                    <g>
                        <mask id="prefix__ao" fill="#fff">
                            <use xlink:href="#prefix__an"/>
                        </mask>
                        <path fill="#443930" d="M59.826 28.914c.057 0 .112-.023.151-.07.007-.007.675-.785 1.735-1.31 1.093-.542 2.631-1.168 2.646-1.174.101-.041.15-.155.11-.255-.042-.101-.158-.148-.257-.108-.016.006-1.568.638-2.674 1.186-1.135.562-1.829 1.375-1.858 1.409-.07.082-.06.206.022.276.037.03.081.046.125.046" mask="url(#prefix__ao)"/>
                    </g>
                    <g>
                        <mask id="prefix__aq" fill="#fff">
                            <use xlink:href="#prefix__ap"/>
                        </mask>
                        <path fill="#443930" d="M80.9 29.288c.034 0 .07-.01.102-.028.092-.055.123-.175.067-.268-.037-.062-.92-1.536-1.81-2.312-.87-.762-1.203-.928-1.237-.945-.099-.046-.215-.004-.262.094-.045.098-.004.214.094.26.002 0 .32.16 1.148.886.841.735 1.722 2.203 1.731 2.217.036.062.101.096.166.096" mask="url(#prefix__aq)"/>
                    </g>
                    <g>
                        <mask id="prefix__as" fill="#fff">
                            <use xlink:href="#prefix__ar"/>
                        </mask>
                        <path fill="#443930" d="M73.772 35.802c.02 0 .038-.002.058-.008.103-.031.163-.14.132-.243-.017-.061-.452-1.5-1.324-2.308-.773-.717-1.747-1.095-3.359-1.72l-.638-.25c-1.844-.721-2.694-3.046-2.702-3.07-.036-.101-.147-.154-.25-.117-.102.036-.154.148-.118.25.035.102.916 2.514 2.928 3.303l.639.248c1.569.609 2.515.977 3.236 1.644.794.736 1.209 2.117 1.213 2.13.025.085.102.14.185.14" mask="url(#prefix__as)"/>
                    </g>
                    <g>
                        <mask id="prefix__au" fill="#fff">
                            <use xlink:href="#prefix__at"/>
                        </mask>
                        <path fill="#443930" d="M69.775 30.41c.061 0 .12-.027.16-.079.064-.087.045-.21-.04-.274-.01-.007-.958-.716-1.898-1.894-.922-1.154-1.086-1.994-1.088-2.003-.02-.105-.117-.177-.228-.156-.106.02-.177.12-.157.226.006.038.177.938 1.166 2.177.976 1.221 1.93 1.935 1.971 1.964.034.026.075.04.114.04" mask="url(#prefix__au)"/>
                    </g>
                    <g>
                        <mask id="prefix__aw" fill="#fff">
                            <use xlink:href="#prefix__av"/>
                        </mask>
                        <path fill="#443930" d="M86.28 51.106c.038 0 .078-.011.113-.036.088-.062.11-.184.047-.273-.002-.003-.313-.466-.708-1.871-.224-.795-.2-1.469-.173-2.323.023-.671.048-1.431-.047-2.404-.157-1.62-.642-1.917-1.377-2.367-.304-.186-.649-.398-1.047-.753-1.309-1.171-2.54-4.701-2.553-4.736-.036-.102-.15-.156-.25-.121-.102.035-.156.147-.12.249.051.149 1.278 3.662 2.662 4.899.424.38.802.611 1.104.796.68.416 1.053.645 1.192 2.071.092.948.067 1.694.045 2.353-.028.852-.053 1.588.187 2.442.418 1.487.751 1.971.765 1.991.038.054.097.083.16.083" mask="url(#prefix__aw)"/>
                    </g>
                    <g>
                        <mask id="prefix__ay" fill="#fff">
                            <use xlink:href="#prefix__ax"/>
                        </mask>
                        <path fill="#443930" d="M79.944 38.166c.036 0 .072-.008.104-.028.091-.056.121-.175.067-.267-.126-.248-.94-3.407-1.425-5.345-.026-.104-.132-.169-.237-.142-.106.027-.169.133-.143.239.303 1.21 1.305 5.184 1.47 5.45.036.06.1.093.164.093" mask="url(#prefix__ay)"/>
                    </g>
                    <g>
                        <mask id="prefix__aA" fill="#fff">
                            <use xlink:href="#prefix__az"/>
                        </mask>
                        <path fill="#443930" d="M71.991 67.613c.103.001.19-.078.196-.182.002-.026.186-2.624.456-4.486.191-1.306.308-1.596.66-2.455.152-.376.342-.844.601-1.543.867-2.349.89-4.005.891-4.075.001-.108-.086-.196-.195-.197-.108 0-.197.086-.197.194 0 .016-.024 1.662-.867 3.942-.256.693-.445 1.158-.597 1.531-.354.87-.486 1.193-.683 2.546-.273 1.877-.457 4.49-.459 4.516-.008.108.074.201.181.21h.013" mask="url(#prefix__aA)"/>
                    </g>
                    <g>
                        <mask id="prefix__aC" fill="#fff">
                            <use xlink:href="#prefix__aB"/>
                        </mask>
                        <path fill="#443930" d="M75.125 58.661c.075 0 .146-.042.18-.114.026-.057.647-1.426.762-3.657.115-2.222-.529-4.883-.556-4.996-.026-.105-.13-.17-.237-.143-.105.025-.17.131-.143.237.006.027.656 2.72.545 4.882-.111 2.15-.721 3.5-.727 3.513-.046.098-.002.215.096.26.026.012.054.018.08.018" mask="url(#prefix__aC)"/>
                    </g>
                    <g>
                        <mask id="prefix__aE" fill="#fff">
                            <use xlink:href="#prefix__aD"/>
                        </mask>
                        <path fill="#443930" d="M76.185 74.466c.05 0 .103-.02.14-.059.06-.06 1.47-1.512 1.882-3.026.387-1.423 2.04-3.348 2.058-3.367.07-.082.062-.206-.02-.277-.081-.07-.206-.06-.277.021-.07.081-1.73 2.012-2.138 3.52-.385 1.415-1.77 2.841-1.784 2.855-.076.078-.074.201.003.277.038.037.087.056.136.056" mask="url(#prefix__aE)"/>
                    </g>
                    <g>
                        <mask id="prefix__aG" fill="#fff">
                            <use xlink:href="#prefix__aF"/>
                        </mask>
                        <path fill="#443930" d="M82.125 65.404c.108 0 .196-.086.197-.194.001-.012.027-1.224 1.03-3.094.277-.516.607-1 .927-1.466.886-1.293 1.801-2.63 1.77-4.882-.044-3.016-1.024-4.883-1.066-4.961-.05-.095-.17-.131-.264-.08-.096.05-.132.169-.081.265.01.018.977 1.867 1.019 4.78.031 2.13-.81 3.357-1.701 4.656-.326.476-.663.968-.95 1.503-1.053 1.965-1.074 3.223-1.075 3.276 0 .108.087.196.194.197" mask="url(#prefix__aG)"/>
                    </g>
                    <g>
                        <mask id="prefix__aI" fill="#fff">
                            <use xlink:href="#prefix__aH"/>
                        </mask>
                        <path fill="#443930" d="M80.518 62.2c.09 0 .173-.062.193-.155.002-.012.269-1.247.83-2.014.59-.808 1.169-1.711 1.175-1.72.058-.091.03-.212-.06-.27-.09-.058-.212-.032-.27.059-.006.009-.578.903-1.161 1.7-.611.836-.886 2.11-.897 2.164-.023.106.045.209.15.232.014.003.027.004.04.004" mask="url(#prefix__aI)"/>
                    </g>
                    <g>
                        <mask id="prefix__aK" fill="#fff">
                            <use xlink:href="#prefix__aJ"/>
                        </mask>
                        <path fill="#FFB600" d="M44.012 99.393c.104 0 .19-.08.197-.184.009-.144.893-14.49 1.085-18.642.192-4.148.638-10.427.643-10.49.008-.108-.073-.202-.182-.21-.117-.006-.201.075-.21.182-.004.063-.45 6.347-.642 10.5-.192 4.149-1.076 18.492-1.084 18.636-.007.108.075.2.182.208h.01z" mask="url(#prefix__aK)"/>
                    </g>
                    <g>
                        <mask id="prefix__aM" fill="#fff">
                            <use xlink:href="#prefix__aL"/>
                        </mask>
                        <path fill="#FFB600" d="M41.188 94.623c.01 0 .02 0 .031-.002.108-.017.181-.118.163-.225-.005-.032-.51-3.275-.502-3.953l.002-.458c.005-1.273.015-4.254.24-7.148.263-3.366-.373-6.41-.38-6.442-.023-.105-.128-.172-.232-.15-.105.022-.174.126-.15.232.005.03.63 3.022.371 6.33-.227 2.908-.236 5.9-.24 7.177l-.002.454c-.01.711.486 3.884.508 4.02.014.095.096.164.19.165" mask="url(#prefix__aM)"/>
                    </g>
                    <g>
                        <mask id="prefix__aO" fill="#fff">
                            <use xlink:href="#prefix__aN"/>
                        </mask>
                        <path fill="#FFE4DC" d="M33.741 51.29s-.667-.268-1.308-.32c-.64-.055-1.255.493-1.308 1.047-.053.553.187 1.221-.453 1.701-.64.481-.909 1.415-.64 2.135.266.721.193 1.091-.104 1.653-.297.563.15 1.9 1.154 2.82 1.004.92 1.138.145 1.404-.389.268-.534-.16-1.36.374-2.189.385-.597 1.768 0 2.125-.88.358-.88 2.146-3.71-1.244-5.579" mask="url(#prefix__aO)"/>
                    </g>
                    <g>
                        <mask id="prefix__aQ" fill="#fff">
                            <use xlink:href="#prefix__aP"/>
                        </mask>
                        <path fill="#FFF" d="M33.412 39.353c-6.614 0-11.976-5.36-11.976-11.976 0-6.613 5.362-11.975 11.976-11.975 6.613 0 11.976 5.362 11.976 11.975 0 6.615-5.363 11.976-11.976 11.976m0-30.625c-10.3 0-18.65 8.35-18.65 18.65 0 10.3 8.35 18.65 18.65 18.65 10.3 0 18.65-8.35 18.65-18.65 0-10.3-8.35-18.65-18.65-18.65" mask="url(#prefix__aQ)"/>
                    </g>
                    <g>
                        <mask id="prefix__aS" fill="#fff">
                            <use xlink:href="#prefix__aR"/>
                        </mask>
                        <path fill="#FFF" d="M33.412 37.144c-5.395 0-9.767-4.373-9.767-9.767 0-5.393 4.372-9.766 9.767-9.766 5.394 0 9.767 4.373 9.767 9.766 0 5.394-4.373 9.767-9.767 9.767m0-24.977c-8.4 0-15.21 6.81-15.21 15.21 0 8.401 6.81 15.211 15.21 15.211 8.4 0 15.21-6.81 15.21-15.21 0-8.4-6.81-15.21-15.21-15.21" mask="url(#prefix__aS)"/>
                    </g>
                </g>
                <g transform="translate(9) translate(0 51.023)">
                    <mask id="prefix__aU" fill="#fff">
                        <use xlink:href="#prefix__aT"/>
                    </mask>
                    <path fill="#FFF" d="M15.348 11.236l-2.462-.018.03-4.353-2.85-.021.017-2.278 2.85.02.03-3.987 2.462.017-.077 10.62zm-2.545 3.827c.007-.875-1.47-1.577-3.673-1.593-2.165-.015-3.688.625-3.694 1.479-.006.834 1.488 1.618 3.673 1.634 2.202.016 3.688-.706 3.694-1.52zm-3.676-3.71c4.055.03 6.43 1.614 6.416 3.71-.014 2.075-2.414 3.624-6.467 3.595-4.037-.03-6.414-1.592-6.398-3.688.015-2.075 2.414-3.645 6.449-3.616zm1.52-2.938L9.264 10.52c-.924-.312-2.768-1.383-3.627-2.834-.545 1.197-2.667 2.809-4.078 3.267L0 8.806C1.837 8.21 4.31 6.62 4.327 4.32l.004-.508-3.036-.022.017-2.34 8.72.063-.018 2.339-3.11-.022-.003.509c-.016 2.197 2.51 3.537 3.747 4.075z" mask="url(#prefix__aU)"/>
                    <path fill="#FFF" d="M32.988 6.643l-2.222-.016-.023 3.275-2.462-.017.065-9.176 2.462.018-.025 3.56 2.222.016-.017 2.34zm-4.752 9.508l.011-1.486-6.739-.048-.01 1.485 6.738.049zm2.445 2.276l-11.662-.084.056-7.711 2.462.018-.013 1.729 6.738.049.013-1.73 2.462.018-.056 7.71zm-3.52-9.791c-1.039.257-3.615.645-7.188.64l-2.647-.02.055-7.65 8.478.062-.017 2.34-6.016-.043-.022 2.949 1.463.01c1.981.015 4.834-.33 5.91-.547l-.016 2.259zM35.053 13.209l-.463-5.171.05-7.122 2.61.02-.05 7.12-.537 5.165-1.61-.012zm2.279 2.274l-.023 3.276-3-.021.024-3.277 2.999.022z"/>
                </g>
            </g>
        </g>
    </g>
</svg>
