<svg xmlns="http://www.w3.org/2000/svg" xmlns:xlink="http://www.w3.org/1999/xlink" width="103" height="70" viewBox="0 0 103 70">
    <defs>
        <path id="a" d="M.244.814h10.208V13H.244z"/>
        <path id="c" d="M.783.589H24.26v29.323H.783z"/>
    </defs>
    <g fill="none" fill-rule="evenodd">
        <rect width="103" height="70" fill="#FFF0E6" rx="10"/>
        <path fill="#F60" d="M27.607 48.45c-1.814-.014-3.243.876-3.253 2.246-.01 1.343 1.42 2.28 3.221 2.293 1.813.014 3.243-.903 3.253-2.246.01-1.37-1.42-2.28-3.22-2.293zm5.476 9.146L22 57.516l.006-.857 5.063.036.021-2.838c-2.367-.169-3.755-1.535-3.744-3.168.013-1.771 1.623-3.158 4.267-3.139 2.646.019 4.235 1.428 4.222 3.2-.01 1.634-1.407 2.993-3.789 3.129l-.02 2.823 5.064.036-.007.858zM44.824 50.539l-1.675-.012-.021 2.934-.932-.007.046-6.477.932.006-.02 2.672 1.676.012-.006.872zm-2.662 7.648l.013-1.757-5.618-.04-.013 1.757 5.618.04zm.926.837l-7.482-.053.035-4.9.933.007-.011 1.482 5.617.04.01-1.482.933.007-.035 4.899zm-1.691-6.628c-.77.133-2.042.277-3.806.32l-3.15.018.037-4.926 5.567.039-.007.858-4.634-.033-.023 3.21 2.506-.01c1.474-.044 2.76-.16 3.516-.32l-.006.844zM55.358 53.604l-.932-.007.047-6.533.932.007-.047 6.533zm-.965 4.657l.012-1.702-5.907-.043-.012 1.703 5.907.042zm.938.851l-7.81-.056.036-4.844.957.007-.01 1.467 5.907.043.01-1.468.945.007-.035 4.844zm-4.546-8.877c.008-1.052-.767-1.888-1.951-1.897-1.16-.007-1.96.831-1.966 1.87-.007 1.037.78 1.901 1.938 1.91 1.185.007 1.972-.845 1.979-1.883zm-1.945-2.823c1.65.011 2.939 1.225 2.927 2.844-.011 1.62-1.317 2.8-2.967 2.788-1.625-.01-2.94-1.21-2.927-2.83.01-1.633 1.317-2.814 2.967-2.802zM66.654 59.332l-.944-.007.087-12.18.945.008-.088 12.179zm-1.738-3.527c-.77.146-2.371.425-3.72.457-1.297.047-3.16.019-3.261.018l.057-8.027.945.007-.051 7.14 2.355-.01c1.159-.033 2.836-.256 3.68-.444l-.005.859z"/>
        <g transform="translate(69 46.411)">
            <mask id="b" fill="#fff">
                <use xlink:href="#a"/>
            </mask>
            <path fill="#F60" d="M10.446 6.674L8.657 6.66 8.612 13l-.945-.007.088-12.18L8.7.82l-.035 4.956 1.788.012-.006.886zM6.884 9.749a25.5 25.5 0 0 1-3.516.307c-1.386.046-3.036.019-3.124.019l.057-7.82 5.416.039-.007.859-4.484-.033-.044 6.104 2.47-.01c1.133-.034 2.696-.203 3.24-.31l-.008.845z" mask="url(#b)"/>
        </g>
        <g transform="translate(33 11.411)">
            <mask id="d" fill="#fff">
                <use xlink:href="#c"/>
            </mask>
            <path fill="#F60" d="M24.14 17.34h-3.712v-6.746H18.6v5.89h-3.713V1.084H18.6V6.81h1.827V.589h3.713v16.75zM14.02 15.399c-.868.23-2.395.394-3.803.394l-2.515.033V2.3h5.839v3.784h-2.126v5.957c.509 0 1.497-.098 2.605-.297v3.654zm5.959 8.359c0-1.68-2.695-2.7-6.228-2.7-3.654 0-6.29 1.02-6.29 2.7 0 1.645 2.666 2.566 6.29 2.566 3.563 0 6.228-.921 6.228-2.566zm-6.258-6.22c6.618 0 10.54 2.533 10.54 6.187 0 3.685-4.012 6.187-10.6 6.187S3.149 27.41 3.149 23.725c0-3.654 3.983-6.187 10.57-6.187zm-6.768-2.205c-.72.197-2.156.46-3.713.46l-2.456.033V2.3h5.93v3.784H4.556v5.957c.48 0 1.438-.066 2.396-.23v3.52z" mask="url(#d)"/>
        </g>
        <path fill="#F60" d="M63.1 32.14l-.808-8.357v-11.52h4.223v11.52l-.81 8.358h-2.604zm-1.137 8.953h4.85v-5.3h-4.85v5.3z"/>
    </g>
</svg>
