<svg xmlns="http://www.w3.org/2000/svg" xmlns:xlink="http://www.w3.org/1999/xlink" width="155" height="70" viewBox="0 0 155 70">
    <defs>
        <path id="a" d="M0 .669h15.111v13.297H0z"/>
        <path id="c" d="M.736.78h6.867v6.779H.736z"/>
    </defs>
    <g fill="none" fill-rule="evenodd">
        <rect width="155" height="70" fill="#F60" rx="10"/>
        <path fill="#FFF" d="M52.828 52.071l-.932-.007.026-3.57-2.583-.019.007-.872 2.582.019.02-2.947.933.005-.053 7.391zm-.876 2.666c.007-.97-1.261-1.573-3.062-1.587-1.826-.013-3.115.56-3.122 1.528-.006.942 1.274 1.56 3.1 1.573 1.8.012 3.078-.574 3.084-1.514zm1.033-.007c-.01 1.37-1.453 2.357-4.135 2.337-2.67-.018-4.112-1.026-4.102-2.396.01-1.384 1.466-2.384 4.136-2.365 2.682.019 4.11 1.04 4.1 2.424zm-2.904-4.298l-.572.785c-.29-.113-1.181-.479-1.868-1.176-.576-.585-.85-.975-1.123-1.558-.218.566-.625 1.13-1.221 1.722-.673.673-1.495 1.124-1.861 1.301l-.663-.725c.62-.286 1.555-.833 2.267-1.631.495-.563.942-1.474.988-2.525l.014-.305-2.493-.018.006-.872 5.995.043-.006.872-2.52-.017.01.29c.019 1.038.404 1.871.966 2.471.65.711 1.667 1.202 2.08 1.343zM65.325 48.313l-1.675-.012-.02 2.934-.933-.006.046-6.478.932.007-.019 2.671 1.675.012-.006.872zm-2.662 7.65l.013-1.758-5.618-.04-.013 1.756 5.618.041zm.926.836l-7.482-.053.035-4.9.933.007-.01 1.481 5.616.041.011-1.482.932.007-.035 4.9zm-1.69-6.628c-.77.133-2.043.276-3.807.32l-3.149.017.036-4.926 5.567.04-.007.857-4.635-.033-.022 3.211 2.506-.009c1.474-.045 2.76-.16 3.516-.32l-.006.843zM75.859 51.379l-.932-.007.047-6.532.932.007-.047 6.532zm-.965 4.657l.012-1.702-5.907-.042-.012 1.702 5.907.042zm.938.852l-7.81-.057.036-4.844.958.007-.011 1.468 5.907.042.01-1.468.945.007-.035 4.845zm-4.546-8.877c.008-1.052-.767-1.89-1.951-1.897-1.16-.008-1.96.83-1.966 1.869-.007 1.038.78 1.9 1.939 1.91 1.184.008 1.97-.844 1.978-1.882zm-1.945-2.824c1.65.01 2.939 1.225 2.927 2.844-.011 1.619-1.317 2.8-2.967 2.788-1.625-.01-2.94-1.211-2.927-2.83.01-1.633 1.318-2.814 2.967-2.802zM87.155 57.107l-.944-.007.087-12.18.944.007-.087 12.18zm-1.738-3.528c-.769.146-2.371.425-3.719.458-1.298.046-3.162.018-3.262.017l.057-8.027.945.007-.051 7.141 2.355-.01c1.159-.034 2.836-.256 3.681-.445l-.006.86zM99.947 50.86l-1.789-.014-.045 6.34-.945-.008L97.256 45l.944.005-.035 4.956 1.788.012-.006.886zm-3.56 3.074c-.544.093-2.044.29-3.518.307-1.386.046-3.036.02-3.124.02l.057-7.82 5.416.038-.007.86-4.484-.034-.044 6.104 2.47-.01c1.133-.033 2.696-.202 3.24-.31l-.007.845zM102.369 50.573l-.327 3.485-.48-.004-.263-3.489.038-5.412 1.07.008-.038 5.412zm.09 6.603l-1.36-.01.01-1.467 1.362.01-.011 1.467zM60.1 23.498h-3.505v6.714h-3.773V13h3.773v6.68H60.1v3.818zM56.594 41.96h-4.012v-6.582h-15.81v-3.784h19.822V41.96zm-5.03-14.974l-2.546 3.028c-.479-.33-2.186-2.271-3.114-4.312-.988 2.14-2.396 3.423-3.683 4.377-1.198-.822-2.426-2.237-3.714-4.344-.958 2.633-2.844 4.08-3.174 4.377l-2.905-2.698c.87-.725 4.163-3.226 4.163-8.096v-1.086h-2.755v-3.785h7.905v3.785h-1.287v1.053c0 3.29 1.407 5.266 1.767 5.66.24-.296 1.736-2.434 1.736-5.693v-1.02h-1.317v-3.785h7.935v3.785h-2.785v.92c0 4.51 3.085 7.275 3.774 7.834zM87.65 23.498h-3.504v6.714h-3.773V13h3.773v6.68h3.504v3.818zM84.146 41.96h-4.012v-6.582h-15.81v-3.784h19.822V41.96zm-5.03-14.974l-2.546 3.028c-.479-.33-2.186-2.271-3.114-4.312-.988 2.14-2.396 3.423-3.683 4.377-1.198-.822-2.426-2.237-3.714-4.344-.958 2.633-2.844 4.08-3.174 4.377l-2.905-2.698c.87-.725 4.163-3.226 4.163-8.096v-1.086h-2.755v-3.785h7.905v3.785h-1.287v1.053c0 3.29 1.407 5.266 1.767 5.66.24-.296 1.736-2.434 1.736-5.693v-1.02h-1.317v-3.785h7.935v3.785h-2.785v.92c0 4.51 3.085 7.275 3.774 7.834zM115.201 23.498h-3.504v6.714h-3.773V13h3.773v6.68h3.504v3.818zm-3.504 18.463h-4.012v-6.582H91.873v-3.784h19.824V41.96zm-5.03-14.974l-2.546 3.028c-.479-.33-2.186-2.271-3.114-4.312-.988 2.14-2.396 3.423-3.683 4.377-1.198-.822-2.426-2.237-3.714-4.344-.958 2.633-2.844 4.08-3.174 4.377l-2.905-2.698c.87-.725 4.163-3.226 4.163-8.096v-1.086H88.94v-3.785h7.905v3.785h-1.287v1.053c0 3.29 1.407 5.266 1.767 5.66.24-.296 1.736-2.434 1.736-5.693v-1.02h-1.317v-3.785h7.935v3.785h-2.785v.92c0 4.51 3.085 7.275 3.774 7.834z"/>
        <g opacity=".35" transform="translate(15 40.186)">
            <mask id="b" fill="#fff">
                <use xlink:href="#a"/>
            </mask>
            <path fill="#FFF" d="M8.718 6.036a.928.928 0 0 1 .195-.158.129.129 0 0 1 .062-.016c.03 0 .07.01.127.04.25.134.485.499.535.832.092.622-.11 1.298-.554 1.856a2.56 2.56 0 0 1-1.255.873 4.248 4.248 0 0 1-.095-.934c.008-.993.358-1.88.985-2.493M3.454 9.422c1.153.948 2.28 1.478 3.363 1.58.24.493.553.942.931 1.326 1.061 1.076 2.595 1.638 4.146 1.638 1.121 0 2.251-.294 3.217-.898l-.78-1.246c-1.741 1.089-4.173.859-5.536-.525a3.52 3.52 0 0 1-.391-.477 4.064 4.064 0 0 0 1.829-1.315c.697-.875 1.009-1.963.857-2.987-.117-.792-.638-1.56-1.295-1.912-.492-.263-1.029-.284-1.509-.057a2.251 2.251 0 0 0-.597.437c-.908.89-1.414 2.145-1.426 3.53-.002.302.019.602.063.895-.608-.187-1.257-.563-1.937-1.124C2.411 6.657.751 3.752 1.78 1.223L.419.669C-.89 3.886 1.075 7.46 3.454 9.422" mask="url(#b)"/>
        </g>
        <path fill="#FFF" d="M22.555 21.944a1.528 1.528 0 0 1-1.526-1.526c0-.841.684-1.526 1.526-1.526s1.526.685 1.526 1.526-.684 1.526-1.526 1.526m0-4.521a2.998 2.998 0 0 0-2.995 2.995 2.999 2.999 0 0 0 2.995 2.996 2.999 2.999 0 0 0 2.995-2.996 2.998 2.998 0 0 0-2.995-2.995M129.94 16.042l4.554 4.307 1.038-1.037-4.555-4.307z" opacity=".35"/>
        <g opacity=".35" transform="translate(132 39.186)">
            <mask id="d" fill="#fff">
                <use xlink:href="#c"/>
            </mask>
            <path fill="#FFF" d="M4.66 5.35L2.808 3.027l2.92-.55L4.662 5.35zm-.018 2.163a.73.73 0 0 0 .944-.434l1.97-5.309a.734.734 0 0 0-.823-.978l-5.4 1.017A.734.734 0 0 0 .897 2.99l3.427 4.293a.74.74 0 0 0 .319.23z" mask="url(#d)"/>
        </g>
    </g>
</svg>
